<?xml version="1.0" standalone="no"?>
<!DOCTYPE svg PUBLIC "-//W3C//DTD SVG 1.1//EN" "http://www.w3.org/Graphics/SVG/1.1/DTD/svg11.dtd" >
<svg xmlns="http://www.w3.org/2000/svg" xmlns:xlink="http://www.w3.org/1999/xlink" version="1.1">
<metadata>
Created by FontForge 20170924 at Mon Nov 20 09:55:48 2023
 By www-data
Copyright \(c\) 2023 by Kind Avenue. All rights reserved.
</metadata>
<defs>
<font id="KindAvenue-Regular" horiz-adv-x="776" >
  <font-face 
    font-family="Kind Avenue"
    font-weight="400"
    font-stretch="normal"
    units-per-em="1000"
    panose-1="0 0 0 0 0 0 0 0 0 0"
    ascent="800"
    descent="-200"
    x-height="519"
    cap-height="726"
    bbox="-12 -294 1460.84 993"
    underline-thickness="50"
    underline-position="-125"
    stemh="42"
    stemv="166"
    unicode-range="U+000D-FB06"
  />
<missing-glyph horiz-adv-x="527" 
d="M80 618v-536l161 268zM95 30h338l-169 282zM263 388l170 283h-339zM448 80v539l-162 -269zM486 709v-718h-445v718h445z" />
    <glyph glyph-name="uniF051" unicode="fj" horiz-adv-x="557" 
d="M330 -214c24 0 37 45 37 85v484c0 110 -52 139 -77 139h-53v-384c0 -49 22 -100 47 -100v-10h-264v10c25 0 47 50 47 96v388h-36v25h36v19c0 129 74 199 209 199c108 0 183 -50 183 -122c0 -43 -33 -72 -81 -72c-45 0 -71 29 -71 71c0 52 -7 98 -31 98
c-26 0 -39 -27 -39 -85v-108h300v-571c0 -140 -113 -187 -204 -187c-113 0 -194 62 -194 139c0 44 31 73 72 73c121 0 77 -187 119 -187z" />
    <glyph glyph-name="uniF052" unicode="fb" horiz-adv-x="942" 
d="M536 372v-239c11 -66 60 -100 107 -100c59 0 99 86 99 219c0 132 -40 213 -97 213c-41 0 -89 -36 -109 -93zM237 627v-108h106v-25h-106v-384c0 -49 22 -100 47 -100v-10h-264v10c25 0 47 50 47 96v388h-36v25h36v19c0 129 74 199 209 199c75 0 102 0 174 7
c29 6 55 14 74 23h12v-334c42 61 99 96 172 96c119 0 214 -97 214 -260c0 -164 -96 -279 -237 -279c-68 0 -116 20 -151 64l-157 -54h-10v587c0 52 -37 125 -78 125c-39 0 -52 -27 -52 -85z" />
    <glyph glyph-name="uniF053" unicode="fh" horiz-adv-x="954" 
d="M237 627v-108h106v-25h-106v-384c0 -49 22 -100 47 -100v-10h-264v10c25 0 47 50 47 96v388h-36v25h36v19c0 129 74 199 209 199c75 0 102 0 175 7c28 6 53 14 74 23h12v-323c38 47 105 85 181 85c109 0 169 -68 169 -191v-228c0 -49 22 -100 47 -100v-10h-264v10
c25 0 47 50 47 96v259c0 60 -29 90 -86 90c-35 0 -72 -22 -94 -56v-289c0 -49 22 -100 47 -100v-10h-264v10c25 0 47 50 47 96v481c0 52 -37 125 -78 125c-39 0 -52 -27 -52 -85z" />
    <glyph glyph-name="uniF054" unicode="fk" horiz-adv-x="1017" 
d="M237 627v-108h106v-25h-106v-384c0 -49 22 -100 47 -100v-10h-264v10c25 0 47 50 47 96v388h-36v25h36v19c0 129 74 199 209 199c75 0 102 0 175 7c28 6 53 14 74 23h12v-517l192 166c55 47 31 93 7 93v10h194v-10c-33 0 -98 -39 -146 -82l-66 -59l198 -287
c20 -29 43 -70 81 -71v-10h-306v10c25 0 40 43 -4 101l-105 139l-45 -40v-100c0 -49 22 -100 47 -100v-10h-264v10c25 0 47 50 47 96v481c0 52 -37 125 -78 125c-39 0 -52 -27 -52 -85z" />
    <glyph glyph-name="f_f" unicode="ff" horiz-adv-x="781" 
d="M237 627v-108h132v19c0 95 -33 174 -83 174c-35 0 -49 -25 -49 -85zM539 627v-108h106v-25h-106v-384c0 -49 22 -100 47 -100v-10h-264v10c25 0 47 50 47 96v388h-132v-384c0 -49 22 -100 47 -100v-10h-264v10c25 0 47 50 47 96v388h-36v25h36v19c0 129 74 199 212 199
c64 0 112 -21 145 -50c35 33 87 50 154 50c108 0 183 -50 183 -122c0 -43 -33 -72 -81 -72c-45 0 -71 29 -71 71c0 52 -7 98 -31 98c-26 0 -39 -27 -39 -85z" />
    <glyph glyph-name="fi" unicode="fi" horiz-adv-x="604" 
d="M237 627v-108h300v-409c0 -49 22 -100 47 -100v-10h-264v10c25 0 47 50 47 96v249c0 110 -52 139 -77 139h-53v-384c0 -49 22 -100 47 -100v-10h-264v10c25 0 47 50 47 96v388h-36v25h36v19c0 129 74 199 209 199c108 0 183 -50 183 -122c0 -43 -33 -72 -81 -72
c-45 0 -71 29 -71 71c0 52 -7 98 -31 98c-26 0 -39 -27 -39 -85z" />
    <glyph glyph-name="fl" unicode="fl" horiz-adv-x="624" 
d="M237 603v-84h106v-25h-106v-384c0 -49 22 -100 47 -100v-10h-264v10c25 0 47 50 47 96v388h-36v25h36v19c0 129 74 199 209 199c30 0 61 -3 91 -9c66 6 133 19 178 39h12v-657c0 -49 22 -100 47 -100v-10h-264v10c25 0 47 50 47 96v508c0 52 -40 98 -84 98
c-43 0 -66 -37 -66 -109z" />
    <glyph glyph-name="f_f_i" unicode="ffi" horiz-adv-x="906" 
d="M237 627v-108h132v19c0 95 -33 174 -83 174c-35 0 -49 -25 -49 -85zM539 627v-108h300v-409c0 -49 22 -100 47 -100v-10h-264v10c25 0 47 50 47 96v249c0 110 -52 139 -77 139h-53v-384c0 -49 22 -100 47 -100v-10h-264v10c25 0 47 50 47 96v388h-132v-384
c0 -49 22 -100 47 -100v-10h-264v10c25 0 47 50 47 96v388h-36v25h36v19c0 129 74 199 212 199c64 0 112 -21 145 -50c35 33 87 50 154 50c108 0 183 -50 183 -122c0 -43 -33 -72 -81 -72c-45 0 -71 29 -71 71c0 52 -7 98 -31 98c-26 0 -39 -27 -39 -85z" />
    <glyph glyph-name="f_f_l" unicode="ffl" horiz-adv-x="926" 
d="M237 627v-108h132v19c0 95 -33 174 -83 174c-35 0 -49 -25 -49 -85zM539 603v-84h106v-25h-106v-384c0 -49 22 -100 47 -100v-10h-264v10c25 0 47 50 47 96v388h-132v-384c0 -49 22 -100 47 -100v-10h-264v10c25 0 47 50 47 96v388h-36v25h36v19c0 129 74 199 212 199
c64 0 112 -21 145 -50c35 33 87 50 154 50c30 0 61 -3 91 -9c66 6 133 19 178 39h12v-657c0 -49 22 -100 47 -100v-10h-264v10c25 0 47 50 47 96v508c0 52 -40 98 -84 98c-43 0 -66 -37 -66 -109z" />
    <glyph glyph-name=".notdef" horiz-adv-x="527" 
d="M80 618v-536l161 268zM95 30h338l-169 282zM263 388l170 283h-339zM448 80v539l-162 -269zM486 709v-718h-445v718h445z" />
    <glyph glyph-name="uni0000" horiz-adv-x="0" 
 />
    <glyph glyph-name="uni0000" horiz-adv-x="0" 
 />
    <glyph glyph-name="uni000D" unicode="&#xd;" horiz-adv-x="250" 
 />
    <glyph glyph-name="space" unicode=" " horiz-adv-x="256" 
 />
    <glyph glyph-name="exclam" unicode="!" horiz-adv-x="226" 
d="M72 236l-50 388c-12 96 34 113 91 113c55 0 103 -17 90 -114l-51 -387c-3 -20 -14 -30 -34 -30h-12c-20 0 -31 10 -34 30zM112 -9c-49 0 -88 37 -88 83s39 83 88 83s88 -37 88 -83s-39 -83 -88 -83z" />
    <glyph glyph-name="quotedbl" unicode="&#x22;" horiz-adv-x="255" 
d="M114 692l-29 -144c-2 -10 -10 -16 -18 -16c-7 0 -15 6 -17 16l-29 144c-5 23 15 45 47 45s50 -22 46 -45zM234 692l-29 -144c-2 -10 -10 -16 -18 -16c-7 0 -15 6 -17 16l-29 144c-5 23 15 45 47 45s50 -22 46 -45z" />
    <glyph glyph-name="numbersign" unicode="#" horiz-adv-x="591" 
d="M251 425l-64 -176h163l64 176h-163zM224 425h-169v25h178l81 220h27l-80 -220h162l81 220h26l-80 -220h121v-25h-131l-64 -176h160v-25h-168l-82 -224h-27l82 224h-163l-82 -224h-26l82 224h-132v25h140z" />
    <glyph glyph-name="dollar" unicode="$" horiz-adv-x="630" 
d="M331 233v-212c61 6 99 40 99 104c0 48 -42 79 -99 108zM300 464v243c-60 -5 -99 -51 -99 -120c0 -54 42 -91 99 -123zM331 -9v-48h-31v47c-176 2 -281 82 -279 174c1 54 36 100 91 100c63 0 90 -38 89 -92c-1 -56 6 -147 99 -152v227c-120 56 -279 111 -279 272
c0 129 100 214 279 218v49h31v-49c151 -6 247 -85 245 -174c-1 -54 -36 -100 -91 -100c-63 0 -90 38 -89 92c1 53 12 137 -65 150v-258c120 -59 279 -110 279 -245c0 -123 -113 -204 -279 -211z" />
    <glyph glyph-name="percent" unicode="%" horiz-adv-x="756" 
d="M524 195c0 -147 22 -193 54 -193s54 46 54 193s-22 194 -54 194s-54 -47 -54 -194zM419 195c0 139 74 207 159 207s158 -68 158 -207s-73 -205 -158 -205s-159 66 -159 205zM124 530c0 -147 22 -192 54 -192c33 0 54 45 54 192c0 148 -21 194 -54 194
c-32 0 -54 -46 -54 -194zM185 0l361 726h33l-361 -726h-33zM20 530c0 139 73 207 158 207s159 -68 159 -207s-74 -205 -159 -205s-158 66 -158 205z" />
    <glyph glyph-name="ampersand" unicode="&#x26;" horiz-adv-x="807" 
d="M441 54c-86 58 -172 148 -232 244c-5 -24 -8 -54 -8 -87c0 -126 88 -179 153 -179c29 0 59 8 87 22zM314 465c25 21 101 90 101 169c0 48 -24 74 -63 74c-40 0 -62 -51 -62 -107c0 -44 9 -90 24 -136zM612 -11c-45 0 -98 20 -151 52c-52 -32 -114 -51 -179 -51
c-153 0 -262 71 -262 189c0 119 83 176 143 201c-24 53 -38 105 -38 152c0 138 91 205 220 205c120 0 192 -56 192 -148c0 -130 -135 -174 -196 -187c50 -104 132 -197 216 -239c23 39 38 83 38 126c0 45 -32 68 -83 68c-68 0 -68 112 18 112c50 0 90 -51 90 -141
c0 -64 -17 -122 -47 -173c25 -10 50 -16 74 -16c48 0 113 36 129 108h10c3 -161 -41 -258 -174 -258z" />
    <glyph glyph-name="quotesingle" unicode="'" horiz-adv-x="135" 
d="M114 692l-29 -144c-2 -10 -10 -16 -18 -16c-7 0 -15 6 -17 16l-29 144c-5 23 15 45 47 45s50 -22 46 -45z" />
    <glyph glyph-name="parenleft" unicode="(" horiz-adv-x="339" 
d="M201 350c0 -259 56 -419 118 -436v-12c-107 16 -299 183 -299 448s192 432 299 447v-12c-62 -16 -118 -176 -118 -435z" />
    <glyph glyph-name="parenright" unicode=")" horiz-adv-x="339" 
d="M138 350c0 259 -56 419 -118 435v12c107 -15 299 -182 299 -447s-192 -432 -299 -448v12c62 17 118 177 118 436z" />
    <glyph glyph-name="asterisk" unicode="*" horiz-adv-x="319" 
d="M191 701l-25 -106l81 73c5 5 12 7 18 7c11 0 22 -6 29 -18c10 -20 2 -40 -16 -46l-104 -27l104 -27c18 -6 26 -26 16 -46c-7 -12 -18 -18 -29 -18c-6 0 -13 2 -18 7l-81 73l25 -107c4 -18 -9 -35 -31 -35c-23 0 -37 17 -33 35l26 107l-81 -73c-5 -5 -12 -7 -18 -7
c-11 0 -22 6 -29 18c-10 20 -2 40 16 46l104 27l-104 27c-18 6 -26 26 -16 46c7 12 18 18 29 18c6 0 13 -2 18 -7l81 -73l-26 106c-4 19 10 36 33 36c22 0 35 -17 31 -36z" />
    <glyph glyph-name="plus" unicode="+" horiz-adv-x="375" 
d="M355 319h-153v-152h-30v152h-152v30h152v153h30v-153h153v-30z" />
    <glyph glyph-name="comma" unicode="," horiz-adv-x="216" 
d="M115 -10c-58 0 -95 36 -95 84c0 47 38 83 88 83s88 -36 88 -83c0 -65 -39 -120 -132 -163l-11 18c32 19 54 39 62 61z" />
    <glyph glyph-name="hyphen" unicode="-" horiz-adv-x="312" 
d="M292 319h-272v30h272v-30z" />
    <glyph glyph-name="period" unicode="." horiz-adv-x="217" 
d="M108 -9c-49 0 -88 37 -88 83s39 83 88 83s88 -37 88 -83s-39 -83 -88 -83z" />
    <glyph glyph-name="slash" unicode="/" horiz-adv-x="339" 
d="M20 0l265 726h34l-264 -726h-35z" />
    <glyph glyph-name="zero" unicode="0" horiz-adv-x="607" 
d="M202 364c0 -276 41 -344 102 -344s101 68 101 344s-40 343 -101 343s-102 -67 -102 -343zM20 363c0 252 121 374 284 374c162 0 283 -122 283 -374s-121 -373 -283 -373c-163 0 -284 121 -284 373z" />
    <glyph glyph-name="one" unicode="1" horiz-adv-x="313" 
d="M247 726v-615c0 -64 22 -100 46 -100v-11h-273v11c25 0 47 36 47 100v495c0 37 -13 51 -41 45v10l211 65h10z" />
    <glyph glyph-name="two" unicode="2" horiz-adv-x="591" 
d="M282 707c-91 0 -71 -94 -70 -152c1 -54 -26 -92 -89 -92c-55 0 -90 46 -91 100c-2 93 96 174 253 174c160 0 282 -66 282 -195c0 -222 -449 -249 -449 -377h268c96 0 157 25 175 72h10l-5 -237h-546v104c0 210 348 340 348 520c0 46 -38 83 -86 83z" />
    <glyph glyph-name="three" unicode="3" horiz-adv-x="600" 
d="M294 707c-87 0 -77 -94 -76 -152c1 -54 -26 -92 -89 -92c-55 0 -90 46 -91 100c-2 93 96 174 269 174c151 0 255 -75 255 -189c0 -72 -53 -130 -127 -139c123 -41 145 -126 145 -184c0 -137 -122 -225 -280 -225c-188 0 -280 62 -280 173c0 65 45 110 104 110
c57 0 75 -42 76 -93c2 -95 41 -165 97 -165c61 0 102 64 102 138c0 165 -54 227 -169 227v20c86 0 152 74 152 169c0 71 -34 128 -88 128z" />
    <glyph glyph-name="four" unicode="4" horiz-adv-x="632" 
d="M378 631l-312 -323h312v323zM378 111v72h-358v125l405 418h133v-418h54v-125h-54v-72c0 -64 22 -100 46 -100v-11h-273v11c25 0 47 36 47 100z" />
    <glyph glyph-name="five" unicode="5" horiz-adv-x="600" 
d="M81 381l-17 17l75 328h200c95 0 138 0 164 42h11l-5 -187h-381l-36 -162c24 19 114 80 247 80c141 0 241 -89 241 -239c0 -172 -122 -260 -302 -260c-150 0 -258 71 -258 163c0 62 50 104 102 104c51 0 65 -39 66 -87c2 -58 24 -155 103 -155c64 0 120 63 120 224
c0 99 -49 204 -136 204c-99 0 -194 -72 -194 -72z" />
    <glyph glyph-name="six" unicode="6" horiz-adv-x="611" 
d="M205 308c10 -126 40 -293 117 -293c40 0 89 69 89 194c0 97 -38 177 -123 177c-53 0 -84 -44 -83 -78zM353 707c-47 0 -152 -59 -152 -289c0 -11 1 -26 1 -43c42 49 106 80 178 80c124 0 211 -91 211 -216c0 -151 -129 -249 -272 -249c-187 0 -299 142 -299 372
c0 211 106 375 332 375c164 0 229 -83 227 -174c-1 -54 -36 -100 -91 -100c-63 0 -90 38 -89 92c1 58 41 152 -46 152z" />
    <glyph glyph-name="seven" unicode="7" horiz-adv-x="540" 
d="M95 0c50 228 158 355 339 581h-228c-102 0 -148 -20 -176 -61h-10l4 206h496v-68c-136 -267 -196 -417 -236 -658h-189z" />
    <glyph glyph-name="eight" unicode="8" horiz-adv-x="658" 
d="M244 320c-20 -25 -44 -70 -44 -149c0 -96 52 -158 138 -158c71 0 120 43 120 111c0 89 -110 136 -214 196zM402 428c10 22 21 56 21 104c0 107 -40 180 -100 180c-44 0 -75 -43 -75 -95c0 -79 72 -135 154 -189zM193 352c-69 47 -125 106 -125 196c0 117 104 189 262 189
c168 0 273 -65 273 -180c0 -95 -83 -141 -148 -163c93 -61 183 -126 183 -228c0 -122 -134 -178 -315 -178c-182 0 -303 74 -303 190c0 100 100 150 173 174z" />
    <glyph glyph-name="nine" unicode="9" horiz-adv-x="611" 
d="M406 423c-10 126 -40 293 -117 293c-40 0 -89 -49 -89 -174c0 -97 38 -197 123 -197c53 0 84 44 83 78zM278 24c47 0 132 59 132 289c0 11 -1 26 -1 43c-42 -49 -106 -80 -178 -80c-124 0 -211 102 -211 216c0 164 129 249 272 249c187 0 299 -142 299 -372
c0 -206 -84 -375 -312 -375c-165 0 -249 83 -247 174c1 54 36 100 91 100c63 0 90 -38 89 -92c-1 -58 -21 -152 66 -152z" />
    <glyph glyph-name="colon" unicode=":" horiz-adv-x="217" 
d="M108 -9c-49 0 -88 37 -88 83s39 83 88 83s88 -37 88 -83s-39 -83 -88 -83zM108 354c-49 0 -88 37 -88 83s39 83 88 83s88 -37 88 -83s-39 -83 -88 -83z" />
    <glyph glyph-name="semicolon" unicode=";" horiz-adv-x="217" 
d="M108 354c-49 0 -88 37 -88 83s39 83 88 83s88 -37 88 -83s-39 -83 -88 -83zM115 -10c-58 0 -95 36 -95 84c0 47 38 83 88 83s88 -36 88 -83c0 -65 -39 -120 -132 -163l-11 18c32 19 54 39 62 61z" />
    <glyph glyph-name="less" unicode="&#x3c;" horiz-adv-x="392" 
d="M372 164l-352 139v48l352 138v-44l-299 -118l299 -118v-45z" />
    <glyph glyph-name="equal" unicode="=" horiz-adv-x="312" 
d="M292 390h-272v30h272v-30zM292 272h-272v30h272v-30z" />
    <glyph glyph-name="greater" unicode="&#x3e;" horiz-adv-x="392" 
d="M20 164v45l299 118l-299 118v44l352 -138v-48z" />
    <glyph glyph-name="question" unicode="?" horiz-adv-x="570" 
d="M243 228c-2 180 127 250 127 379c0 55 -35 100 -79 100c-87 0 -91 -94 -90 -152c1 -54 -26 -92 -89 -92c-55 0 -90 46 -91 100c-2 93 96 174 269 174c138 0 260 -59 260 -164c0 -162 -212 -166 -250 -345c-4 -18 -13 -26 -30 -26c-18 0 -27 9 -27 26zM270 -9
c-49 0 -88 37 -88 83s39 83 88 83s88 -37 88 -83s-39 -83 -88 -83z" />
    <glyph glyph-name="at" unicode="@" horiz-adv-x="933" 
d="M523 138l49 238c-1 69 -30 115 -69 115c-52 0 -109 -101 -129 -218c-21 -118 -7 -219 41 -219c35 0 83 33 108 84zM723 109c62 0 139 76 158 199c34 221 -105 372 -337 372c-243 0 -442 -143 -486 -384c-47 -256 102 -430 364 -430c158 0 345 63 422 188h20
c-83 -136 -279 -213 -467 -213c-271 0 -416 199 -367 453c49 258 260 411 517 411s402 -169 358 -410c-32 -174 -150 -305 -282 -305c-82 0 -107 53 -105 98c-48 -62 -105 -98 -168 -98c-104 0 -187 97 -159 260c29 164 138 279 270 279c60 0 98 -27 123 -71l157 61h23
l-66 -376c-4 -23 3 -34 25 -34z" />
    <glyph glyph-name="A" unicode="A" 
d="M320 566l-135 -367h268zM117 103l227 623h109l225 -619c23 -62 57 -97 78 -97v-10h-306v10c41 0 58 34 34 101l-21 58h-288l-25 -69c-24 -65 -2 -90 39 -90v-10h-169v10c38 0 77 37 97 93z" />
    <glyph glyph-name="B" unicode="B" horiz-adv-x="644" 
d="M247 30h16c118 0 179 58 179 172c0 112 -62 169 -185 169h-10v-341zM247 696v-295h1c92 0 143 52 143 144c0 95 -53 151 -142 151h-2zM349 0h-329v11c25 0 47 36 47 100v514c0 60 -22 91 -47 91v10h270c179 0 283 -64 283 -170c0 -77 -50 -134 -124 -148
c97 -18 175 -101 175 -195c0 -146 -94 -213 -275 -213z" />
    <glyph glyph-name="C" unicode="C" horiz-adv-x="664" 
d="M380 737c161 0 265 -81 263 -174c-1 -54 -36 -100 -91 -100c-63 0 -90 38 -89 92c1 58 14 152 -87 152c-91 0 -174 -90 -174 -295c0 -183 86 -298 222 -298c114 0 193 71 205 184h10c12 -182 -106 -308 -289 -308c-200 0 -330 147 -330 373c0 237 156 374 360 374z" />
    <glyph glyph-name="D" unicode="D" horiz-adv-x="687" 
d="M247 696v-666h10c148 0 228 117 228 330c0 215 -82 336 -230 336h-8zM20 716v10h255c265 0 392 -127 392 -363c0 -241 -132 -363 -392 -363h-255v10c25 0 47 31 47 91v524c0 60 -22 91 -47 91z" />
    <glyph glyph-name="E" unicode="E" horiz-adv-x="580" 
d="M20 726h535l5 -186h-9c-18 90 -45 156 -164 156h-140v-319h96c97 0 142 48 142 106h10v-239h-10c0 58 -45 105 -142 105h-96v-319h140c119 0 146 67 164 157h9l-5 -187h-535v10c25 0 47 31 47 91v524c0 60 -22 91 -47 91v10z" />
    <glyph glyph-name="F" unicode="F" horiz-adv-x="576" 
d="M247 111c0 -64 21 -100 46 -100v-11h-273v11c25 0 47 36 47 100v514c0 60 -22 91 -47 91v10h531l5 -186h-10c-18 90 -50 156 -164 156h-135v-323h116c93 0 118 49 118 104h10v-238h-10c0 56 -25 104 -118 104h-116v-232z" />
    <glyph glyph-name="G" unicode="G" horiz-adv-x="703" 
d="M395 34c52 0 75 34 75 110v155c0 61 -26 93 -78 96v10h291v-10c-29 0 -47 -38 -47 -99v-296h-10s-40 26 -82 26c-64 0 -91 -36 -194 -36c-200 0 -330 147 -330 373c0 252 156 374 360 374c161 0 265 -81 263 -174c-1 -54 -36 -100 -91 -100c-63 0 -90 38 -89 92
c1 58 14 152 -87 152c-91 0 -174 -100 -174 -331c0 -204 57 -342 193 -342z" />
    <glyph glyph-name="H" unicode="H" horiz-adv-x="745" 
d="M247 111c0 -64 22 -100 46 -100v-11h-273v11c25 0 47 36 47 100v514c0 60 -22 91 -47 91v10h273v-10c-24 0 -46 -31 -46 -91v-253h252v253c0 60 -22 91 -47 91v10h273v-10c-24 0 -46 -31 -46 -91v-514c0 -64 22 -100 46 -100v-11h-273v11c25 0 47 36 47 100v231h-252
v-231z" />
    <glyph glyph-name="I" unicode="I" horiz-adv-x="313" 
d="M247 111c0 -64 22 -100 46 -100v-11h-273v11c25 0 47 36 47 100v514c0 60 -22 91 -47 91v10h273v-10c-24 0 -46 -31 -46 -91v-514z" />
    <glyph glyph-name="J" unicode="J" horiz-adv-x="595" 
d="M529 625l-1 -410c0 -145 -88 -225 -256 -225c-143 0 -253 76 -251 174c1 54 36 100 91 100c63 0 90 -38 89 -92c-1 -58 -21 -152 80 -152c42 0 67 35 67 90l1 515c0 60 -22 91 -47 91v10h273v-10c-24 0 -46 -31 -46 -91z" />
    <glyph glyph-name="K" unicode="K" horiz-adv-x="699" 
d="M247 111c0 -64 22 -100 46 -100v-11h-273v11c25 0 47 36 47 100v514c0 60 -22 91 -47 91v10h273v-10c-24 0 -46 -31 -46 -91v-277l219 266c51 62 29 102 4 102v10h174v-10c-47 0 -87 -40 -138 -102l-122 -148l214 -385c17 -30 44 -70 81 -71v-10h-310v10c34 0 42 38 9 97
l-117 209l-14 -17v-188z" />
    <glyph glyph-name="L" unicode="L" horiz-adv-x="580" 
d="M67 101v524c0 60 -22 91 -47 91v10h273v-10c-24 0 -46 -31 -46 -91v-595h139c120 0 146 67 164 157h10l-5 -187h-535v10c25 0 47 31 47 91z" />
    <glyph glyph-name="M" unicode="M" horiz-adv-x="863" 
d="M797 111c0 -64 22 -100 46 -100v-11h-273v11c25 0 47 36 47 100v506l-214 -617h-83l-203 589v-488c0 -60 22 -91 46 -91v-10h-123v10c25 0 47 31 47 91v510c0 74 -42 105 -67 105v10h242l178 -519l179 519h224v-10c-24 0 -46 -31 -46 -91v-514z" />
    <glyph glyph-name="N" unicode="N" horiz-adv-x="663" 
d="M87 101v502c0 72 -42 113 -67 113v10h233l314 -582v481c0 60 -22 91 -47 91v10h123v-10c-24 0 -46 -31 -46 -91v-625h-156l-324 591v-490c0 -60 22 -91 46 -91v-10h-123v10c25 0 47 31 47 91z" />
    <glyph glyph-name="O" unicode="O" horiz-adv-x="701" 
d="M20 363c0 239 147 374 331 374c183 0 330 -135 330 -374s-147 -373 -330 -373c-184 0 -331 134 -331 373zM202 363c0 -239 67 -342 149 -342c80 0 148 103 148 342s-68 342 -148 342c-82 0 -149 -103 -149 -342z" />
    <glyph glyph-name="P" unicode="P" horiz-adv-x="620" 
d="M252 696h-5v-369h10c101 0 161 68 161 183c0 117 -62 186 -166 186zM20 716v10h254c203 0 326 -62 326 -215c0 -152 -124 -214 -328 -214h-25v-186c0 -64 22 -100 46 -100v-11h-273v11c25 0 47 36 47 100v514c0 60 -22 91 -47 91z" />
    <glyph glyph-name="Q" unicode="Q" horiz-adv-x="701" 
d="M202 363c0 -239 67 -342 149 -342c80 0 148 103 148 342s-68 342 -148 342c-82 0 -149 -103 -149 -342zM20 363c0 239 147 374 331 374c183 0 330 -135 330 -374c0 -237 -144 -370 -325 -373c55 -27 110 -58 171 -58c42 0 77 21 87 57h10c0 -143 -52 -223 -145 -223
c-158 0 -165 232 -269 232c-19 0 -32 -8 -32 -21c0 -37 88 -8 88 -92c0 -39 -37 -68 -86 -68c-128 0 -132 192 10 213c-102 56 -170 170 -170 333z" />
    <glyph glyph-name="R" unicode="R" horiz-adv-x="657" 
d="M252 696h-5v-319h10c101 0 161 59 161 158c0 101 -62 161 -166 161zM20 716v10h254c203 0 326 -55 326 -190c0 -105 -76 -161 -206 -181c197 -37 104 -283 196 -283c23 0 36 15 36 42h11c0 -78 -53 -124 -122 -124c-233 0 -100 318 -261 357h-7v-219
c0 -75 22 -117 46 -117v-11h-273v11c25 0 47 36 47 100v514c0 60 -22 91 -47 91z" />
    <glyph glyph-name="S" unicode="S" horiz-adv-x="630" 
d="M308 20c75 0 122 33 122 105c0 149 -409 136 -409 394c0 132 105 218 292 218c161 0 265 -81 263 -174c-1 -54 -36 -100 -91 -100c-63 0 -90 38 -89 92c1 58 14 152 -87 152c-65 0 -108 -48 -108 -120c0 -170 409 -168 409 -385c0 -129 -124 -212 -304 -212
s-287 81 -285 174c1 54 36 100 91 100c63 0 90 -38 89 -92c-1 -58 6 -152 107 -152z" />
    <glyph glyph-name="T" unicode="T" horiz-adv-x="726" 
d="M701 726l5 -187h-10c-18 90 -44 157 -164 157h-79v-595c0 -60 22 -91 47 -91v-10h-273v10c24 0 46 31 46 91v595h-79c-120 0 -146 -67 -164 -157h-10l5 187h676z" />
    <glyph glyph-name="U" unicode="U" horiz-adv-x="690" 
d="M594 625c0 60 -22 91 -47 91v10h123v-10c-24 0 -46 -31 -46 -91v-353c0 -186 -93 -282 -260 -282c-198 0 -297 110 -297 320v315c0 60 -22 91 -47 91v10h273v-10c-24 0 -46 -31 -46 -91l1 -346c0 -147 56 -217 173 -217c115 0 173 67 173 201v362z" />
    <glyph glyph-name="V" unicode="V" 
d="M756 726v-10c-38 0 -77 -37 -97 -93l-227 -623h-109l-225 619c-23 62 -57 97 -78 97v10h306v-10c-41 0 -58 -34 -34 -101l164 -455l170 466c23 65 2 90 -39 90v10h169z" />
    <glyph glyph-name="W" unicode="W" horiz-adv-x="1098" 
d="M293 0l-195 619c-20 62 -57 97 -78 97v10h306v-10c-41 0 -56 -35 -34 -101l135 -413l94 287l-41 130c-20 62 -57 97 -78 97v10h306v-10c-41 0 -56 -35 -34 -101l135 -413l139 424c21 65 2 90 -39 90v10h169v-10c-38 0 -79 -37 -97 -93l-197 -623h-109l-136 432l-137 -432
h-109z" />
    <glyph glyph-name="X" unicode="X" horiz-adv-x="747" 
d="M178 97c-36 -51 -17 -87 14 -87v-10h-172v10c25 0 89 41 121 86l157 221l-177 308c-29 50 -70 91 -94 91v10h315v-10c-25 0 -44 -32 -10 -91l100 -172l122 170c37 51 15 93 -10 93v10h172v-10c-24 0 -88 -41 -125 -93l-143 -199l184 -319c36 -63 68 -95 95 -95v-10h-315
v10c25 0 43 34 8 95l-105 182z" />
    <glyph glyph-name="Y" unicode="Y" horiz-adv-x="654" 
d="M418 111c0 -64 22 -100 46 -100v-11h-273v11c25 0 47 36 47 100v217l-133 293c-24 54 -60 95 -85 95v10h276v-10c-25 0 -33 -41 -8 -95l114 -251l114 251c25 54 -3 95 -28 95v10h146v-10c-25 0 -61 -41 -85 -95l-131 -289v-221z" />
    <glyph glyph-name="Z" unicode="Z" horiz-adv-x="591" 
d="M20 0v31l341 665h-159c-94 0 -146 -66 -164 -156h-10l5 186h531v-30l-341 -666h174c94 0 146 67 164 157h10l-5 -187h-546z" />
    <glyph glyph-name="bracketleft" unicode="[" horiz-adv-x="319" 
d="M20 -95v894h279v-10h-98v-874h98v-10h-279z" />
    <glyph glyph-name="backslash" unicode="\" horiz-adv-x="339" 
d="M319 0h-34l-265 726h35z" />
    <glyph glyph-name="bracketright" unicode="]" horiz-adv-x="319" 
d="M299 -95h-279v10h98v874h-98v10h279v-894z" />
    <glyph glyph-name="asciicircum" unicode="^" horiz-adv-x="279" 
d="M215 488l-75 198l-76 -198h-44l91 238h57l91 -238h-44z" />
    <glyph glyph-name="underscore" unicode="_" horiz-adv-x="419" 
d="M399 -49h-379v20h379v-20z" />
    <glyph glyph-name="grave" unicode="`" horiz-adv-x="205" 
d="M139 627l-119 110h83l81 -110h-45z" />
    <glyph glyph-name="a" unicode="a" horiz-adv-x="566" 
d="M316 78v194c0 23 -12 47 -41 47c-46 0 -79 -61 -79 -168c0 -66 28 -104 61 -104c23 0 42 9 59 31zM486 288v-205c0 -22 7 -36 23 -36c10 0 19 4 27 21h10c0 -45 -46 -78 -107 -78c-65 0 -102 18 -117 57c-31 -40 -78 -57 -134 -57c-90 0 -168 61 -168 165
c0 149 131 198 220 198c55 0 76 -16 76 -16v72c0 57 -22 95 -52 95c-26 0 -39 -26 -39 -79c0 -44 -38 -77 -97 -77c-47 0 -73 26 -73 66c0 73 88 115 200 115c152 0 231 -94 231 -241z" />
    <glyph glyph-name="b" unicode="b" horiz-adv-x="642" 
d="M236 372v-239c11 -66 60 -100 107 -100c59 0 99 86 99 219c0 132 -40 213 -97 213c-41 0 -89 -36 -109 -93zM77 0h-10v612c0 54 -22 104 -47 104v10c68 5 157 18 204 41h12v-334c42 61 99 96 172 96c119 0 214 -97 214 -260c0 -164 -96 -279 -237 -279
c-68 0 -116 20 -151 64z" />
    <glyph glyph-name="c" unicode="c" horiz-adv-x="523" 
d="M429 317c-138 0 -55 187 -153 187c-53 0 -81 -67 -81 -191c0 -141 60 -220 147 -220c76 0 133 41 151 109h10c-7 -132 -90 -212 -222 -212c-154 0 -261 112 -261 272c0 158 106 267 258 267c121 0 218 -62 218 -139c0 -44 -33 -73 -67 -73z" />
    <glyph glyph-name="d" unicode="d" horiz-adv-x="642" 
d="M406 98v246c-17 85 -60 142 -106 142c-60 0 -100 -89 -100 -227c0 -135 50 -218 121 -218c36 0 72 25 85 57zM563 778h12v-668c0 -49 22 -100 47 -100v-10h-216v48c-49 -41 -111 -58 -170 -58c-123 0 -216 97 -216 260c0 164 94 279 237 279c68 0 114 -25 149 -68v168
c0 50 -22 98 -47 98v10c74 5 153 18 204 41z" />
    <glyph glyph-name="e" unicode="e" horiz-adv-x="539" 
d="M192 315h160c-4 117 -33 189 -75 189c-50 0 -81 -87 -85 -189zM517 312v-21h-324c7 -127 68 -198 158 -198c36 0 136 6 158 109h10c-12 -137 -108 -212 -235 -212c-155 0 -264 112 -264 272c0 159 104 267 253 267c136 0 244 -95 244 -217z" />
    <glyph glyph-name="f" unicode="f" horiz-adv-x="479" 
d="M237 627v-108h106v-25h-106v-384c0 -49 22 -100 47 -100v-10h-264v10c25 0 47 50 47 96v388h-36v25h36v19c0 129 74 199 209 199c108 0 183 -50 183 -122c0 -43 -33 -72 -81 -72c-45 0 -71 29 -71 71c0 52 -7 98 -31 98c-26 0 -39 -27 -39 -85z" />
    <glyph glyph-name="g" unicode="g" horiz-adv-x="561" 
d="M197 320c0 -139 31 -184 71 -184c41 0 71 45 71 184c0 138 -30 184 -71 184c-40 0 -71 -46 -71 -184zM171 -46c-16 -20 -25 -52 -25 -80c0 -52 47 -91 117 -91c75 0 124 39 124 84c0 61 -117 67 -216 87zM88 -21c-34 16 -56 39 -56 75c0 49 37 84 78 108
c-54 37 -88 94 -88 159c0 118 103 208 234 208c28 0 55 -4 80 -11c22 54 64 124 132 124c95 0 94 -141 13 -141c-51 0 -55 31 -91 31c-11 0 -24 -4 -35 -22c93 -33 159 -102 159 -187c0 -121 -112 -211 -253 -211c-49 0 -99 17 -131 38c-23 -13 -33 -24 -33 -38
c0 -64 424 52 424 -177c0 -99 -97 -174 -260 -174c-138 0 -241 45 -241 127c0 45 24 76 68 91z" />
    <glyph glyph-name="h" unicode="h" horiz-adv-x="654" 
d="M417 106v259c0 60 -29 90 -86 90c-35 0 -72 -22 -94 -56v-289c0 -49 22 -100 47 -100v-10h-264v10c25 0 47 50 47 96v512c0 50 -22 98 -47 98v10c74 5 154 18 205 41h12v-323c38 47 105 85 181 85c109 0 169 -68 169 -191v-228c0 -49 22 -100 47 -100v-10h-264v10
c25 0 47 50 47 96z" />
    <glyph glyph-name="i" unicode="i" horiz-adv-x="304" 
d="M138 561c-49 0 -88 37 -88 83s39 83 88 83s88 -37 88 -83s-39 -83 -88 -83zM20 0v10c25 0 47 50 47 96v264c0 50 -22 98 -47 98v10c74 5 154 18 205 41h12v-409c0 -49 22 -100 47 -100v-10h-264z" />
    <glyph glyph-name="j" unicode="j" horiz-adv-x="438" 
d="M319 561c-49 0 -88 37 -88 83s39 83 88 83s88 -37 88 -83s-39 -83 -88 -83zM211 -214c24 0 37 45 37 85v499c0 50 -22 98 -47 98v10c74 5 154 18 205 41h12v-571c0 -140 -113 -187 -204 -187c-113 0 -194 62 -194 139c0 44 31 73 72 73c121 0 77 -187 119 -187z" />
    <glyph glyph-name="k" unicode="k" horiz-adv-x="717" 
d="M20 0v10c25 0 47 50 47 96v512c0 50 -22 98 -47 98v10c74 5 154 18 205 41h12v-517l192 166c55 47 31 93 7 93v10h194v-10c-33 0 -98 -39 -146 -82l-66 -59l198 -287c20 -29 43 -70 81 -71v-10h-306v10c25 0 40 43 -4 101l-105 139l-45 -40v-100c0 -49 22 -100 47 -100
v-10h-264z" />
    <glyph glyph-name="l" unicode="l" horiz-adv-x="304" 
d="M237 767v-657c0 -49 22 -100 47 -100v-10h-264v10c25 0 47 50 47 96v512c0 50 -22 98 -47 98v10c74 5 154 18 205 41h12z" />
    <glyph glyph-name="m" unicode="m" horiz-adv-x="951" 
d="M397 106v259c0 60 -25 90 -76 90c-31 0 -64 -22 -84 -55v-290c0 -49 22 -100 47 -100v-10h-264v10c25 0 47 50 47 96v264c0 50 -22 98 -47 98v10c74 5 154 18 205 41h12v-74c36 47 99 84 171 84c70 0 118 -31 142 -90c35 50 101 90 175 90c103 0 159 -68 159 -191v-228
c0 -49 22 -100 47 -100v-10h-264v10c25 0 47 50 47 96v259c0 60 -25 90 -76 90c-28 0 -58 -18 -78 -46c4 -21 7 -45 7 -71v-228c0 -49 22 -100 47 -100v-10h-264v10c25 0 47 50 47 96z" />
    <glyph glyph-name="n" unicode="n" horiz-adv-x="654" 
d="M417 106v259c0 60 -29 90 -86 90c-35 0 -72 -22 -94 -56v-289c0 -49 22 -100 47 -100v-10h-264v10c25 0 47 50 47 96v264c0 50 -22 98 -47 98v10c74 5 154 18 205 41h12v-75c38 47 105 85 181 85c109 0 169 -68 169 -191v-228c0 -49 22 -100 47 -100v-10h-264v10
c25 0 47 50 47 96z" />
    <glyph glyph-name="o" unicode="o" horiz-adv-x="597" 
d="M20 259c0 154 122 270 280 270c156 0 277 -116 277 -270c0 -153 -121 -269 -277 -269c-158 0 -280 116 -280 269zM202 260c0 -192 44 -245 97 -245s96 53 96 245c0 191 -43 244 -96 244s-97 -53 -97 -244z" />
    <glyph glyph-name="p" unicode="p" horiz-adv-x="643" 
d="M237 415v-271c19 -80 60 -111 106 -111c60 0 100 88 100 229c0 134 -46 217 -112 217c-32 0 -76 -30 -94 -64zM225 519h12v-54c49 41 111 64 170 64c123 0 216 -97 216 -260c0 -164 -94 -279 -237 -279c-68 0 -114 25 -149 68v-176c0 -49 22 -100 47 -100v-10h-264v10
c25 0 47 50 47 96v492c0 50 -22 98 -47 98v10c74 5 154 18 205 41z" />
    <glyph glyph-name="q" unicode="q" horiz-adv-x="643" 
d="M406 144v281c-16 31 -53 54 -85 54c-75 0 -121 -83 -121 -217c0 -141 40 -229 100 -229c46 0 87 31 106 111zM411 475c61 10 101 20 153 44h12v-641c0 -46 22 -96 47 -96v-10h-264v10c25 0 47 51 47 100v176c-35 -43 -81 -68 -149 -68c-143 0 -237 115 -237 279
c0 163 111 260 234 260c71 0 115 -19 157 -54z" />
    <glyph glyph-name="r" unicode="r" horiz-adv-x="540" 
d="M20 0v10c25 0 47 50 47 96v264c0 50 -22 98 -47 98v10c74 5 154 18 205 41h12v-77c40 55 104 87 174 87c149 0 134 -190 22 -190c-89 0 -68 115 -128 115c-32 0 -58 -44 -68 -64v-280c0 -49 22 -100 47 -100v-10h-264z" />
    <glyph glyph-name="s" unicode="s" horiz-adv-x="488" 
d="M244 504c-24 0 -46 -19 -46 -54c0 -133 270 -149 270 -303c0 -92 -94 -157 -222 -157c-127 0 -226 40 -226 126c0 45 33 84 80 84c117 0 55 -185 146 -185c32 0 51 15 51 45c0 127 -272 156 -272 318c0 82 93 151 216 151c140 0 221 -54 221 -131c0 -43 -30 -70 -77 -70
c-112 0 -74 176 -141 176z" />
    <glyph glyph-name="t" unicode="t" horiz-adv-x="392" 
d="M35 519c92 0 180 63 198 148h20v-148h114v-25h-114v-343c0 -49 19 -76 52 -76c29 0 53 23 57 42h10c0 -73 -63 -127 -149 -127c-92 0 -140 56 -140 161v343h-63v25h15z" />
    <glyph glyph-name="u" unicode="u" horiz-adv-x="659" 
d="M422 135v235c0 50 -22 98 -47 98v10c74 5 154 18 205 41h12v-386c0 -93 22 -123 47 -123v-10h-217v73c-29 -41 -95 -83 -187 -83c-103 0 -168 62 -168 177v203c0 50 -22 98 -47 98v10c74 5 154 18 205 41h12v-360c0 -56 30 -105 87 -105c48 0 98 34 98 81z" />
    <glyph glyph-name="v" unicode="v" horiz-adv-x="650" 
d="M377 0h-122l-153 413c-24 66 -57 96 -82 96v10h279v-10c-24 0 -36 -30 -11 -96l109 -291l106 293c24 65 -8 95 -32 95v9h159v-9c-25 0 -78 -30 -102 -95z" />
    <glyph glyph-name="w" unicode="w" horiz-adv-x="930" 
d="M347 0h-92l-153 413c-24 66 -57 96 -82 96v10h279v-10c-24 0 -36 -30 -11 -96l94 -250l60 168l-30 82c-24 66 -57 96 -82 96v10h279v-10c-24 0 -36 -30 -11 -96l94 -250l91 252c24 65 -8 95 -32 95v9h159v-9c-25 0 -78 -30 -102 -95l-151 -415h-92l-110 297z" />
    <glyph glyph-name="x" unicode="x" horiz-adv-x="569" 
d="M285 0v10c25 0 31 50 4 96l-62 106l-77 -106c-34 -46 -36 -96 -11 -96v-10h-119v10c25 0 72 51 108 100l88 121l-106 182c-27 46 -65 96 -90 96v10h264v-10c-25 0 -30 -51 -2 -100l50 -86l65 90c34 46 36 96 11 96v10h119v-10c-25 0 -72 -51 -108 -100l-76 -105l114 -194
c28 -49 67 -100 92 -100v-10h-264z" />
    <glyph glyph-name="y" unicode="y" horiz-adv-x="628" 
d="M150 -239c-151 0 -159 175 -51 175c98 0 60 -105 126 -105c23 0 45 16 64 58l-190 521c-21 58 -54 99 -79 99v10h280v-10c-24 0 -35 -41 -14 -99l98 -270l102 273c21 55 -12 96 -36 96v10h158v-10c-25 0 -78 -41 -98 -96l-187 -504c-37 -101 -93 -148 -173 -148z" />
    <glyph glyph-name="z" unicode="z" horiz-adv-x="490" 
d="M20 0v25l248 469h-72c-94 0 -146 -72 -164 -162h-10l5 187h434v-25l-246 -469h81c94 0 146 72 164 162h10l-5 -187h-445z" />
    <glyph glyph-name="braceleft" unicode="{" horiz-adv-x="406" 
d="M386 788c-37 0 -89 -4 -89 -106c0 -33 6 -142 6 -169c0 -95 -75 -141 -151 -163c76 -24 151 -69 151 -163c0 -28 -6 -136 -6 -168c0 -103 52 -107 89 -107v-9c-147 -9 -262 23 -262 157c0 34 6 137 6 173c0 72 -32 115 -110 105v24c78 -10 110 33 110 105
c0 36 -6 139 -6 174c0 133 115 165 262 157v-10z" />
    <glyph glyph-name="bar" unicode="|" horiz-adv-x="71" 
d="M51 -207h-31v933h31v-933z" />
    <glyph glyph-name="braceright" unicode="}" horiz-adv-x="406" 
d="M20 788v10c147 8 262 -24 262 -157c0 -35 -6 -138 -6 -174c0 -72 32 -115 110 -105v-24c-78 10 -110 -33 -110 -105c0 -36 6 -139 6 -173c0 -134 -115 -166 -262 -157v9c37 0 89 4 89 107c0 32 -6 140 -6 168c0 94 75 139 151 163c-76 22 -151 68 -151 163
c0 27 6 136 6 169c0 102 -52 106 -89 106z" />
    <glyph glyph-name="asciitilde" unicode="~" horiz-adv-x="537" 
d="M31 264h-11c1 65 26 170 111 170c92 0 195 -69 285 -69c57 0 89 27 90 69h11c-2 -71 -36 -170 -119 -170c-98 0 -207 68 -290 68c-51 0 -77 -27 -77 -68z" />
    <glyph glyph-name="exclamdown" unicode="&#xa1;" horiz-adv-x="226" 
d="M154 262l50 -388c12 -96 -34 -113 -91 -113c-55 0 -103 17 -90 114l51 387c3 20 14 30 34 30h12c20 0 31 -10 34 -30zM114 507c49 0 88 -37 88 -83s-39 -83 -88 -83s-88 37 -88 83s39 83 88 83z" />
    <glyph glyph-name="cent" unicode="&#xa2;" horiz-adv-x="523" 
d="M429 317c-138 0 -55 187 -153 187c-53 0 -81 -67 -81 -191c0 -141 60 -220 147 -220c76 0 133 41 151 109h10c-7 -126 -82 -204 -203 -211v-77h-31v76c-148 6 -249 116 -249 272c0 155 102 263 249 267v73h31v-74c111 -7 196 -66 196 -138c0 -44 -33 -73 -67 -73z" />
    <glyph glyph-name="sterling" unicode="&#xa3;" horiz-adv-x="565" 
d="M307 707c-49 0 -74 -62 -74 -123c0 -79 35 -150 39 -235h60v-30h-59c-3 -103 -40 -174 -40 -174h119c96 0 123 17 164 52h10l-10 -197h-496v11c81 0 87 112 87 181c0 51 -3 92 -7 127h-40v30h36c-12 77 -29 127 -29 206c0 135 104 182 230 182c151 0 249 -81 247 -174
c-1 -54 -36 -100 -91 -100c-63 0 -90 38 -89 92c1 58 44 152 -57 152z" />
    <glyph glyph-name="currency" unicode="&#xa4;" horiz-adv-x="537" 
d="M91 349c0 -101 82 -182 182 -182c99 0 181 81 181 182c0 99 -82 181 -181 181c-100 0 -182 -82 -182 -181zM63 349c0 50 17 98 48 134l-91 92l29 29l92 -92c37 29 82 46 132 46c48 0 91 -15 127 -42l88 88l29 -29l-87 -87c33 -38 53 -86 53 -139s-20 -102 -52 -139
l86 -87l-29 -29l-87 88c-36 -27 -80 -44 -128 -44c-51 0 -96 18 -133 48l-91 -92l-29 29l91 92c-30 36 -48 83 -48 134z" />
    <glyph glyph-name="yen" unicode="&#xa5;" horiz-adv-x="654" 
d="M500 232v-30h-82v-91c0 -64 22 -100 46 -100v-11h-273v11c25 0 47 36 47 100v91h-84v30h84v88h-84v30h74l-123 271c-24 54 -60 95 -85 95v10h276v-10c-25 0 -33 -41 -8 -95l114 -251l114 251c25 54 -3 95 -28 95v10h146v-10c-25 0 -61 -41 -85 -95l-123 -271h74v-30h-82
v-88h82z" />
    <glyph glyph-name="brokenbar" unicode="&#xa6;" horiz-adv-x="71" 
d="M20 -167v394h31v-394h-31zM20 322v404h31v-404h-31z" />
    <glyph glyph-name="section" unicode="&#xa7;" horiz-adv-x="488" 
d="M270 165c15 8 27 20 27 36c0 50 -31 84 -72 115c-15 -9 -27 -24 -27 -46c0 -45 31 -77 72 -105zM244 685c-24 0 -46 -21 -46 -58c0 -143 270 -161 270 -327c0 -80 -62 -142 -155 -162c74 -44 155 -86 155 -171c0 -92 -94 -157 -222 -157c-127 0 -226 40 -226 126
c0 45 33 84 80 84c117 0 55 -185 146 -185c32 0 51 15 51 45c0 127 -272 156 -272 318c0 69 66 129 159 146c-74 49 -159 97 -159 197c0 92 93 169 216 169c140 0 221 -54 221 -131c0 -43 -30 -70 -77 -70c-112 0 -74 176 -141 176z" />
    <glyph glyph-name="dieresis" unicode="&#xa8;" horiz-adv-x="331" 
d="M171 656c0 40 32 70 70 70c39 0 70 -30 70 -70c0 -37 -31 -69 -70 -69c-38 0 -70 32 -70 69zM21 656c0 40 31 70 70 70c38 0 69 -30 69 -70c0 -37 -31 -69 -69 -69c-39 0 -70 32 -70 69z" />
    <glyph glyph-name="copyright" unicode="&#xa9;" horiz-adv-x="726" 
d="M41 363c0 -177 145 -321 322 -321c178 0 322 144 322 321c0 178 -144 322 -322 322c-177 0 -322 -144 -322 -322zM388 604c104 0 171 -52 170 -112c-1 -35 -24 -64 -59 -64c-41 0 -58 24 -57 59c0 37 9 98 -57 98c-58 0 -112 -58 -112 -190c0 -118 56 -192 143 -192
c74 0 125 45 133 118h6c8 -117 -68 -198 -186 -198c-129 0 -213 94 -213 240c0 153 100 241 232 241zM20 363c0 187 154 341 343 341s343 -154 343 -341s-154 -341 -343 -341s-343 154 -343 341z" />
    <glyph glyph-name="ordfeminine" unicode="&#xaa;" horiz-adv-x="378" 
d="M210 574v124c0 15 -7 30 -26 30c-29 0 -51 -39 -51 -107c0 -43 18 -67 39 -67c15 0 27 6 38 20zM319 708v-131c0 -14 5 -23 15 -23c6 0 12 3 17 14h6c0 -29 -29 -50 -68 -50c-42 0 -65 11 -75 36c-20 -26 -50 -36 -86 -36c-57 0 -107 39 -107 105c0 96 84 127 141 127
c35 0 48 -10 48 -10v46c0 36 -14 61 -33 61c-17 0 -25 -17 -25 -51c0 -28 -24 -49 -62 -49c-30 0 -47 16 -47 42c0 47 57 74 128 74c97 0 148 -61 148 -155z" />
    <glyph glyph-name="guillemotleft" unicode="&#xab;" horiz-adv-x="472" 
d="M20 247l191 249h41l-180 -249l180 -249h-41zM220 247l191 249h41l-180 -249l180 -249h-41z" />
    <glyph glyph-name="logicalnot" unicode="&#xac;" horiz-adv-x="515" 
d="M20 450v20h475v-174h-21v154h-454z" />
    <glyph glyph-name="registered" unicode="&#xae;" horiz-adv-x="726" 
d="M41 363c0 -177 145 -321 322 -321c178 0 322 144 322 321c0 178 -144 322 -322 322c-177 0 -322 -144 -322 -322zM332 581h-4v-202h7c64 0 102 37 102 100c0 64 -40 102 -105 102zM20 363c0 187 154 341 343 341s343 -154 343 -341s-154 -341 -343 -341
s-343 154 -343 341zM185 594v6h161c128 0 206 -35 206 -120c0 -67 -48 -103 -130 -115c125 -24 65 -179 124 -179c14 0 23 9 23 26h6c0 -49 -33 -78 -77 -78c-147 0 -63 201 -165 226h-5v-139c0 -47 14 -74 30 -74v-7h-173v7c16 0 29 23 29 63v326c0 38 -13 58 -29 58z" />
    <glyph glyph-name="macron" unicode="&#xaf;" horiz-adv-x="285" 
d="M265 746h-245v22h245v-22z" />
    <glyph glyph-name="degree" unicode="&#xb0;" horiz-adv-x="202" 
d="M53 679c0 -26 22 -48 48 -48c27 0 48 22 48 48s-21 48 -48 48c-26 0 -48 -22 -48 -48zM21 679c0 44 35 80 80 80c44 0 81 -36 81 -80c0 -45 -37 -81 -81 -81c-45 0 -80 36 -80 81z" />
    <glyph glyph-name="plusminus" unicode="&#xb1;" horiz-adv-x="375" 
d="M355 319h-153v-152h-30v152h-152v30h152v153h30v-153h153v-30zM339 109h-302v30h302v-30z" />
    <glyph glyph-name="twosuperior" unicode="&#xb2;" horiz-adv-x="394" 
d="M188 973c-58 0 -45 -60 -44 -97c0 -34 -17 -59 -57 -59c-35 0 -58 30 -59 64c-1 60 62 112 162 112c103 0 181 -43 181 -125c0 -142 -287 -159 -287 -241h171c61 0 101 16 112 46h6l-3 -152h-349v67c0 134 223 217 223 332c0 30 -25 53 -56 53z" />
    <glyph glyph-name="threesuperior" unicode="&#xb3;" horiz-adv-x="400" 
d="M196 967c-56 0 -49 -60 -48 -97c0 -34 -17 -59 -57 -59c-36 0 -58 30 -59 64c-1 60 62 112 172 112c97 0 164 -48 164 -121c0 -46 -34 -83 -82 -89c79 -26 93 -81 93 -118c0 -88 -78 -144 -179 -144c-120 0 -179 40 -179 111c0 41 29 70 66 70s48 -27 49 -59
c1 -61 26 -106 62 -106c39 0 65 41 65 88c0 106 -34 146 -108 146v12c55 0 97 48 97 109c0 45 -21 81 -56 81z" />
    <glyph glyph-name="acute" unicode="&#xb4;" horiz-adv-x="205" 
d="M66 627h-45l81 110h83z" />
    <glyph glyph-name="paragraph" unicode="&#xb6;" horiz-adv-x="398" 
d="M337 -57v753h-44v-753h-42v322c-127 0 -231 103 -231 230c0 128 104 231 231 231h127v-783h-41z" />
    <glyph glyph-name="periodcentered" unicode="&#xb7;" horiz-adv-x="217" 
d="M108 216c-49 0 -88 37 -88 83s39 83 88 83s88 -37 88 -83s-39 -83 -88 -83z" />
    <glyph glyph-name="cedilla" unicode="&#xb8;" horiz-adv-x="217" 
d="M53 -40v10l65 50h29l-66 -48c61 0 116 -23 116 -79c0 -45 -38 -82 -87 -82c-28 0 -60 13 -90 44l3 10c13 -5 25 -8 35 -8c29 0 47 19 47 49c0 31 -21 54 -52 54z" />
    <glyph glyph-name="onesuperior" unicode="&#xb9;" horiz-adv-x="216" 
d="M166 986v-394c0 -41 14 -64 30 -64v-7h-175v7c16 0 30 23 30 64v317c0 24 -8 32 -26 29v6l135 42h6z" />
    <glyph glyph-name="ordmasculine" unicode="&#xba;" horiz-adv-x="398" 
d="M21 691c0 98 78 173 179 173c100 0 177 -75 177 -173s-77 -172 -177 -172c-101 0 -179 74 -179 172zM137 691c0 -122 28 -156 62 -156s62 34 62 156c0 123 -28 157 -62 157s-62 -34 -62 -157z" />
    <glyph glyph-name="guillemotright" unicode="&#xbb;" horiz-adv-x="472" 
d="M452 247l-191 -249h-41l180 249l-180 249h41zM252 247l-191 -249h-41l180 249l-180 249h41z" />
    <glyph glyph-name="onequarter" unicode="&#xbc;" horiz-adv-x="686" 
d="M539 342l-169 -175h169v175zM153 0h-37l361 726h37zM539 60v39h-194v68l219 226h72v-226h29v-68h-29v-39c0 -35 12 -54 25 -54v-6h-148v6c14 0 26 19 26 54zM140 726h5v-339c0 -35 12 -55 25 -55v-6h-150v6c14 0 26 20 26 55v273c0 20 -7 28 -23 25v5z" />
    <glyph glyph-name="onehalf" unicode="&#xbd;" horiz-adv-x="720" 
d="M140 726h5v-339c0 -35 12 -55 25 -55v-6h-150v6c14 0 26 20 26 55v273c0 20 -7 28 -23 25v5zM143 0h-37l361 726h37zM538 394c-50 0 -39 -52 -39 -84c1 -31 -14 -52 -49 -52c-31 0 -51 26 -51 56c-1 52 53 97 141 97c89 0 157 -37 157 -109c0 -124 -250 -139 -250 -210
h149c54 0 88 14 98 40h5l-2 -132h-305v58c0 117 194 190 194 290c0 26 -21 46 -48 46z" />
    <glyph glyph-name="threequarters" unicode="&#xbe;" horiz-adv-x="741" 
d="M591 349l-172 -178h172v178zM591 61v40h-198v70l224 231h74v-231h30v-70h-30v-40c0 -35 12 -55 25 -55v-6h-151v6c14 0 26 20 26 55zM175 720c-49 0 -44 -53 -43 -85c0 -31 -15 -52 -50 -52c-31 0 -51 26 -52 56c-1 52 54 98 152 98c85 0 143 -42 143 -106
c0 -41 -29 -74 -71 -79c69 -23 82 -71 82 -103c0 -77 -69 -127 -158 -127c-106 0 -158 35 -158 97c0 37 26 62 59 62c32 0 42 -23 43 -52c1 -54 23 -93 54 -93c35 0 58 36 58 78c0 93 -31 128 -95 128v11c48 0 85 42 85 95c0 40 -19 72 -49 72zM251 0h-37l361 726h37z" />
    <glyph glyph-name="questiondown" unicode="&#xbf;" horiz-adv-x="570" 
d="M327 270c2 -180 -127 -250 -127 -379c0 -55 35 -100 79 -100c87 0 91 94 90 152c-1 54 26 92 89 92c55 0 90 -46 91 -100c2 -93 -96 -174 -269 -174c-138 0 -260 59 -260 164c0 162 212 166 250 345c4 18 13 26 30 26c18 0 27 -9 27 -26zM300 507c49 0 88 -37 88 -83
s-39 -83 -88 -83s-88 37 -88 83s39 83 88 83z" />
    <glyph glyph-name="Agrave" unicode="&#xc0;" 
d="M320 566l-135 -367h268zM117 103l227 623h109l225 -619c23 -62 57 -97 78 -97v-10h-306v10c41 0 58 34 34 101l-21 58h-288l-25 -69c-24 -65 -2 -90 39 -90v-10h-169v10c38 0 77 37 97 93zM470 750h-45l-119 110h83z" />
    <glyph glyph-name="Aacute" unicode="&#xc1;" 
d="M320 566l-135 -367h268zM117 103l227 623h109l225 -619c23 -62 57 -97 78 -97v-10h-306v10c41 0 58 34 34 101l-21 58h-288l-25 -69c-24 -65 -2 -90 39 -90v-10h-169v10c38 0 77 37 97 93zM470 860l-119 -110h-45l81 110h83z" />
    <glyph glyph-name="Acircumflex" unicode="&#xc2;" 
d="M320 566l-135 -367h268zM117 103l227 623h109l225 -619c23 -62 57 -97 78 -97v-10h-306v10c41 0 58 34 34 101l-21 58h-288l-25 -69c-24 -65 -2 -90 39 -90v-10h-169v10c38 0 77 37 97 93zM496 750h-25l-83 64l-82 -64h-25l71 110h73z" />
    <glyph glyph-name="Atilde" unicode="&#xc3;" 
d="M320 566l-135 -367h268zM117 103l227 623h109l225 -619c23 -62 57 -97 78 -97v-10h-306v10c41 0 58 34 34 101l-21 58h-288l-25 -69c-24 -65 -2 -90 39 -90v-10h-169v10c38 0 77 37 97 93zM243 752h-10c2 77 40 130 93 130c54 0 71 -37 146 -37c39 0 58 12 60 37h10
c2 -81 -33 -130 -94 -130c-66 0 -99 38 -154 38c-26 0 -51 -9 -51 -38z" />
    <glyph glyph-name="Adieresis" unicode="&#xc4;" 
d="M320 566l-135 -367h268zM117 103l227 623h109l225 -619c23 -62 57 -97 78 -97v-10h-306v10c41 0 58 34 34 101l-21 58h-288l-25 -69c-24 -65 -2 -90 39 -90v-10h-169v10c38 0 77 37 97 93zM244 820c0 40 31 70 70 70c38 0 69 -30 69 -70c0 -37 -31 -69 -69 -69
c-39 0 -70 32 -70 69zM394 820c0 40 32 70 70 70c39 0 70 -30 70 -70c0 -37 -31 -69 -70 -69c-38 0 -70 32 -70 69z" />
    <glyph glyph-name="Aring" unicode="&#xc5;" 
d="M320 566l-135 -367h268zM345 820c0 -23 20 -42 43 -42s42 19 42 42s-19 42 -42 42s-43 -19 -43 -42zM117 103l227 623h109l225 -619c23 -62 57 -97 78 -97v-10h-306v10c41 0 58 34 34 101l-21 58h-288l-25 -69c-24 -65 -2 -90 39 -90v-10h-169v10c38 0 77 37 97 93z
M318 820c0 39 31 71 70 71c38 0 69 -32 69 -71c0 -38 -31 -70 -69 -70c-39 0 -70 32 -70 70z" />
    <glyph glyph-name="AE" unicode="&#xc6;" horiz-adv-x="1026" 
d="M320 566l-135 -367h268zM117 103l227 623h109l60 -165v64c0 60 -22 91 -47 91v10h535l5 -186h-9c-18 90 -45 156 -164 156h-140v-319h96c97 0 142 48 142 106h10v-239h-10c0 58 -45 105 -142 105h-96v-319h140c119 0 146 67 164 157h9l-5 -187h-551v10c41 0 58 34 34 101
l-21 58h-288l-25 -69c-24 -65 -2 -90 39 -90v-10h-169v10c38 0 77 37 97 93z" />
    <glyph glyph-name="Ccedilla" unicode="&#xc7;" horiz-adv-x="664" 
d="M294 -50v10l39 30c-190 8 -313 153 -313 373c0 237 156 374 360 374c161 0 265 -81 263 -174c-1 -54 -36 -100 -91 -100c-63 0 -90 38 -89 92c1 58 14 152 -87 152c-91 0 -174 -90 -174 -295c0 -183 86 -298 222 -298c114 0 193 71 205 184h10
c12 -178 -101 -303 -278 -308l-39 -28c61 0 116 -23 116 -79c0 -45 -38 -82 -87 -82c-28 0 -60 13 -90 44l3 10c13 -5 25 -8 35 -8c29 0 47 19 47 49c0 31 -21 54 -52 54z" />
    <glyph glyph-name="Egrave" unicode="&#xc8;" horiz-adv-x="580" 
d="M20 726h535l5 -186h-9c-18 90 -45 156 -164 156h-140v-319h96c97 0 142 48 142 106h10v-239h-10c0 58 -45 105 -142 105h-96v-319h140c119 0 146 67 164 157h9l-5 -187h-535v10c25 0 47 31 47 91v524c0 60 -22 91 -47 91v10zM340 750l-119 110h83l81 -110h-45z" />
    <glyph glyph-name="Eacute" unicode="&#xc9;" horiz-adv-x="580" 
d="M20 726h535l5 -186h-9c-18 90 -45 156 -164 156h-140v-319h96c97 0 142 48 142 106h10v-239h-10c0 58 -45 105 -142 105h-96v-319h140c119 0 146 67 164 157h9l-5 -187h-535v10c25 0 47 31 47 91v524c0 60 -22 91 -47 91v10zM266 750h-45l81 110h83z" />
    <glyph glyph-name="Ecircumflex" unicode="&#xca;" horiz-adv-x="580" 
d="M20 726h535l5 -186h-9c-18 90 -45 156 -164 156h-140v-319h96c97 0 142 48 142 106h10v-239h-10c0 58 -45 105 -142 105h-96v-319h140c119 0 146 67 164 157h9l-5 -187h-535v10c25 0 47 31 47 91v524c0 60 -22 91 -47 91v10zM386 750l-83 64l-82 -64h-25l71 110h73
l71 -110h-25z" />
    <glyph glyph-name="Edieresis" unicode="&#xcb;" horiz-adv-x="580" 
d="M20 726h535l5 -186h-9c-18 90 -45 156 -164 156h-140v-319h96c97 0 142 48 142 106h10v-239h-10c0 58 -45 105 -142 105h-96v-319h140c119 0 146 67 164 157h9l-5 -187h-535v10c25 0 47 31 47 91v524c0 60 -22 91 -47 91v10zM309 820c0 40 32 70 70 70
c39 0 70 -30 70 -70c0 -37 -31 -69 -70 -69c-38 0 -70 32 -70 69zM159 820c0 40 31 70 70 70c38 0 69 -30 69 -70c0 -37 -31 -69 -69 -69c-39 0 -70 32 -70 69z" />
    <glyph glyph-name="Igrave" unicode="&#xcc;" horiz-adv-x="313" 
d="M247 111c0 -64 22 -100 46 -100v-11h-273v11c25 0 47 36 47 100v514c0 60 -22 91 -47 91v10h273v-10c-24 0 -46 -31 -46 -91v-514zM194 750l-119 110h83l81 -110h-45z" />
    <glyph glyph-name="Iacute" unicode="&#xcd;" horiz-adv-x="313" 
d="M247 111c0 -64 22 -100 46 -100v-11h-273v11c25 0 47 36 47 100v514c0 60 -22 91 -47 91v10h273v-10c-24 0 -46 -31 -46 -91v-514zM120 750h-45l81 110h83z" />
    <glyph glyph-name="Icircumflex" unicode="&#xce;" horiz-adv-x="313" 
d="M247 111c0 -64 22 -100 46 -100v-11h-273v11c25 0 47 36 47 100v514c0 60 -22 91 -47 91v10h273v-10c-24 0 -46 -31 -46 -91v-514zM240 750l-83 64l-82 -64h-25l71 110h73l71 -110h-25z" />
    <glyph glyph-name="Idieresis" unicode="&#xcf;" horiz-adv-x="313" 
d="M247 111c0 -64 22 -100 46 -100v-11h-273v11c25 0 47 36 47 100v514c0 60 -22 91 -47 91v10h273v-10c-24 0 -46 -31 -46 -91v-514zM163 820c0 40 32 70 70 70c39 0 70 -30 70 -70c0 -37 -31 -69 -70 -69c-38 0 -70 32 -70 69zM13 820c0 40 31 70 70 70
c38 0 69 -30 69 -70c0 -37 -31 -69 -69 -69c-39 0 -70 32 -70 69z" />
    <glyph glyph-name="Eth" unicode="&#xd0;" horiz-adv-x="687" 
d="M302 399v-30h-55v-339h10c148 0 228 117 228 330c0 215 -82 336 -230 336h-8v-297h55zM30 399h37v226c0 60 -22 91 -47 91v10h255c265 0 392 -127 392 -363c0 -241 -132 -363 -392 -363h-255v10c25 0 47 31 47 91v268h-37v30z" />
    <glyph glyph-name="Ntilde" unicode="&#xd1;" horiz-adv-x="663" 
d="M87 101v502c0 72 -42 113 -67 113v10h233l314 -582v481c0 60 -22 91 -47 91v10h123v-10c-24 0 -46 -31 -46 -91v-625h-156l-324 591v-490c0 -60 22 -91 46 -91v-10h-123v10c25 0 47 31 47 91zM197 752h-10c2 77 40 130 93 130c54 0 71 -37 146 -37c39 0 58 12 60 37h10
c2 -81 -33 -130 -94 -130c-66 0 -99 38 -154 38c-26 0 -51 -9 -51 -38z" />
    <glyph glyph-name="Ograve" unicode="&#xd2;" horiz-adv-x="701" 
d="M20 363c0 239 147 374 331 374c183 0 330 -135 330 -374s-147 -373 -330 -373c-184 0 -331 134 -331 373zM202 363c0 -239 67 -342 149 -342c80 0 148 103 148 342s-68 342 -148 342c-82 0 -149 -103 -149 -342zM388 750l-119 110h83l81 -110h-45z" />
    <glyph glyph-name="Oacute" unicode="&#xd3;" horiz-adv-x="701" 
d="M20 363c0 239 147 374 331 374c183 0 330 -135 330 -374s-147 -373 -330 -373c-184 0 -331 134 -331 373zM202 363c0 -239 67 -342 149 -342c80 0 148 103 148 342s-68 342 -148 342c-82 0 -149 -103 -149 -342zM314 750h-45l81 110h83z" />
    <glyph glyph-name="Ocircumflex" unicode="&#xd4;" horiz-adv-x="701" 
d="M202 363c0 -239 67 -342 149 -342c80 0 148 103 148 342s-68 342 -148 342c-82 0 -149 -103 -149 -342zM20 363c0 239 147 374 331 374c183 0 330 -135 330 -374s-147 -373 -330 -373c-184 0 -331 134 -331 373zM459 750h-25l-83 64l-82 -64h-25l71 110h73z" />
    <glyph glyph-name="Otilde" unicode="&#xd5;" horiz-adv-x="701" 
d="M202 363c0 -239 67 -342 149 -342c80 0 148 103 148 342s-68 342 -148 342c-82 0 -149 -103 -149 -342zM20 363c0 239 147 374 331 374c183 0 330 -135 330 -374s-147 -373 -330 -373c-184 0 -331 134 -331 373zM206 752h-10c2 77 40 130 93 130c54 0 71 -37 146 -37
c39 0 58 12 60 37h10c2 -81 -33 -130 -94 -130c-66 0 -99 38 -154 38c-26 0 -51 -9 -51 -38z" />
    <glyph glyph-name="Odieresis" unicode="&#xd6;" horiz-adv-x="701" 
d="M20 363c0 239 147 374 331 374c183 0 330 -135 330 -374s-147 -373 -330 -373c-184 0 -331 134 -331 373zM202 363c0 -239 67 -342 149 -342c80 0 148 103 148 342s-68 342 -148 342c-82 0 -149 -103 -149 -342zM357 820c0 40 32 70 70 70c39 0 70 -30 70 -70
c0 -37 -31 -69 -70 -69c-38 0 -70 32 -70 69zM207 820c0 40 31 70 70 70c38 0 69 -30 69 -70c0 -37 -31 -69 -69 -69c-39 0 -70 32 -70 69z" />
    <glyph glyph-name="multiply" unicode="&#xd7;" horiz-adv-x="299" 
d="M258 206l-109 108l-107 -108l-21 21l107 108l-107 107l21 22l107 -108l109 108l21 -21l-108 -108l108 -108z" />
    <glyph glyph-name="Oslash" unicode="&#xd8;" horiz-adv-x="701" 
d="M242 111l197 541c-25 36 -55 53 -88 53c-82 0 -149 -103 -149 -342c0 -113 15 -196 40 -252zM459 614l-196 -541c24 -35 55 -52 88 -52c80 0 148 103 148 342c0 113 -15 196 -40 251zM236 0h-35l7 20c-111 53 -188 170 -188 343c0 239 147 374 331 374
c39 0 77 -6 112 -19l3 8h34l-7 -20c111 -52 188 -170 188 -343c0 -239 -147 -373 -330 -373c-39 0 -77 6 -112 18z" />
    <glyph glyph-name="Ugrave" unicode="&#xd9;" horiz-adv-x="690" 
d="M594 625c0 60 -22 91 -47 91v10h123v-10c-24 0 -46 -31 -46 -91v-353c0 -186 -93 -282 -260 -282c-198 0 -297 110 -297 320v315c0 60 -22 91 -47 91v10h273v-10c-24 0 -46 -31 -46 -91l1 -346c0 -147 56 -217 173 -217c115 0 173 67 173 201v362zM401 750l-119 110h83
l81 -110h-45z" />
    <glyph glyph-name="Uacute" unicode="&#xda;" horiz-adv-x="690" 
d="M594 625c0 60 -22 91 -47 91v10h123v-10c-24 0 -46 -31 -46 -91v-353c0 -186 -93 -282 -260 -282c-198 0 -297 110 -297 320v315c0 60 -22 91 -47 91v10h273v-10c-24 0 -46 -31 -46 -91l1 -346c0 -147 56 -217 173 -217c115 0 173 67 173 201v362zM327 750h-45l81 110h83
z" />
    <glyph glyph-name="Ucircumflex" unicode="&#xdb;" horiz-adv-x="690" 
d="M594 625c0 60 -22 91 -47 91v10h123v-10c-24 0 -46 -31 -46 -91v-353c0 -186 -93 -282 -260 -282c-198 0 -297 110 -297 320v315c0 60 -22 91 -47 91v10h273v-10c-24 0 -46 -31 -46 -91l1 -346c0 -147 56 -217 173 -217c115 0 173 67 173 201v362zM447 750l-83 64
l-82 -64h-25l71 110h73l71 -110h-25z" />
    <glyph glyph-name="Udieresis" unicode="&#xdc;" horiz-adv-x="690" 
d="M594 625c0 60 -22 91 -47 91v10h123v-10c-24 0 -46 -31 -46 -91v-353c0 -186 -93 -282 -260 -282c-198 0 -297 110 -297 320v315c0 60 -22 91 -47 91v10h273v-10c-24 0 -46 -31 -46 -91l1 -346c0 -147 56 -217 173 -217c115 0 173 67 173 201v362zM370 820
c0 40 32 70 70 70c39 0 70 -30 70 -70c0 -37 -31 -69 -70 -69c-38 0 -70 32 -70 69zM220 820c0 40 31 70 70 70c38 0 69 -30 69 -70c0 -37 -31 -69 -69 -69c-39 0 -70 32 -70 69z" />
    <glyph glyph-name="Yacute" unicode="&#xdd;" horiz-adv-x="654" 
d="M418 111c0 -64 22 -100 46 -100v-11h-273v11c25 0 47 36 47 100v217l-133 293c-24 54 -60 95 -85 95v10h276v-10c-25 0 -33 -41 -8 -95l114 -251l114 251c25 54 -3 95 -28 95v10h146v-10c-25 0 -61 -41 -85 -95l-131 -289v-221zM295 750h-45l81 110h83z" />
    <glyph glyph-name="germandbls" unicode="&#xdf;" horiz-adv-x="691" 
d="M67 111v355c0 180 88 271 263 271c172 0 270 -93 270 -185c0 -73 -49 -127 -123 -152c112 -23 194 -96 194 -204c0 -153 -145 -206 -269 -206c-184 0 -158 206 -68 206c151 0 69 -177 120 -177c30 0 36 45 36 141c0 178 -106 214 -210 214v30c89 0 139 59 139 149
c0 93 -23 159 -94 159c-64 0 -78 -79 -78 -207v-505h-227v11c25 0 47 36 47 100z" />
    <glyph glyph-name="agrave" unicode="&#xe0;" horiz-adv-x="566" 
d="M316 78v194c0 23 -12 47 -41 47c-46 0 -79 -61 -79 -168c0 -66 28 -104 61 -104c23 0 42 9 59 31zM486 288v-205c0 -22 7 -36 23 -36c10 0 19 4 27 21h10c0 -45 -46 -78 -107 -78c-65 0 -102 18 -117 57c-31 -40 -78 -57 -134 -57c-90 0 -168 61 -168 165
c0 149 131 198 220 198c55 0 76 -16 76 -16v72c0 57 -22 95 -52 95c-26 0 -39 -26 -39 -79c0 -44 -38 -77 -97 -77c-47 0 -73 26 -73 66c0 73 88 115 200 115c152 0 231 -94 231 -241zM346 555h-45l-119 110h83z" />
    <glyph glyph-name="aacute" unicode="&#xe1;" horiz-adv-x="566" 
d="M316 78v194c0 23 -12 47 -41 47c-46 0 -79 -61 -79 -168c0 -66 28 -104 61 -104c23 0 42 9 59 31zM486 288v-205c0 -22 7 -36 23 -36c10 0 19 4 27 21h10c0 -45 -46 -78 -107 -78c-65 0 -102 18 -117 57c-31 -40 -78 -57 -134 -57c-90 0 -168 61 -168 165
c0 149 131 198 220 198c55 0 76 -16 76 -16v72c0 57 -22 95 -52 95c-26 0 -39 -26 -39 -79c0 -44 -38 -77 -97 -77c-47 0 -73 26 -73 66c0 73 88 115 200 115c152 0 231 -94 231 -241zM346 665l-119 -110h-45l81 110h83z" />
    <glyph glyph-name="acircumflex" unicode="&#xe2;" horiz-adv-x="566" 
d="M316 78v194c0 23 -12 47 -41 47c-46 0 -79 -61 -79 -168c0 -66 28 -104 61 -104c23 0 42 9 59 31zM486 288v-205c0 -22 7 -36 23 -36c10 0 19 4 27 21h10c0 -45 -46 -78 -107 -78c-65 0 -102 18 -117 57c-31 -40 -78 -57 -134 -57c-90 0 -168 61 -168 165
c0 149 131 198 220 198c55 0 76 -16 76 -16v72c0 57 -22 95 -52 95c-26 0 -39 -26 -39 -79c0 -44 -38 -77 -97 -77c-47 0 -73 26 -73 66c0 73 88 115 200 115c152 0 231 -94 231 -241zM372 555h-25l-83 64l-82 -64h-25l71 110h73z" />
    <glyph glyph-name="atilde" unicode="&#xe3;" horiz-adv-x="566" 
d="M316 78v194c0 23 -12 47 -41 47c-46 0 -79 -61 -79 -168c0 -66 28 -104 61 -104c23 0 42 9 59 31zM486 288v-205c0 -22 7 -36 23 -36c10 0 19 4 27 21h10c0 -45 -46 -78 -107 -78c-65 0 -102 18 -117 57c-31 -40 -78 -57 -134 -57c-90 0 -168 61 -168 165
c0 149 131 198 220 198c55 0 76 -16 76 -16v72c0 57 -22 95 -52 95c-26 0 -39 -26 -39 -79c0 -44 -38 -77 -97 -77c-47 0 -73 26 -73 66c0 73 88 115 200 115c152 0 231 -94 231 -241zM119 557h-10c2 77 40 130 93 130c54 0 71 -37 146 -37c39 0 58 12 60 37h10
c2 -81 -33 -130 -94 -130c-66 0 -99 38 -154 38c-26 0 -51 -9 -51 -38z" />
    <glyph glyph-name="adieresis" unicode="&#xe4;" horiz-adv-x="566" 
d="M316 78v194c0 23 -12 47 -41 47c-46 0 -79 -61 -79 -168c0 -66 28 -104 61 -104c23 0 42 9 59 31zM486 288v-205c0 -22 7 -36 23 -36c10 0 19 4 27 21h10c0 -45 -46 -78 -107 -78c-65 0 -102 18 -117 57c-31 -40 -78 -57 -134 -57c-90 0 -168 61 -168 165
c0 149 131 198 220 198c55 0 76 -16 76 -16v72c0 57 -22 95 -52 95c-26 0 -39 -26 -39 -79c0 -44 -38 -77 -97 -77c-47 0 -73 26 -73 66c0 73 88 115 200 115c152 0 231 -94 231 -241zM120 625c0 40 31 70 70 70c38 0 69 -30 69 -70c0 -37 -31 -69 -69 -69
c-39 0 -70 32 -70 69zM270 625c0 40 32 70 70 70c39 0 70 -30 70 -70c0 -37 -31 -69 -70 -69c-38 0 -70 32 -70 69z" />
    <glyph glyph-name="aring" unicode="&#xe5;" horiz-adv-x="566" 
d="M316 78v194c0 23 -12 47 -41 47c-46 0 -79 -61 -79 -168c0 -66 28 -104 61 -104c23 0 42 9 59 31zM221 625c0 -23 20 -42 43 -42s42 19 42 42s-19 42 -42 42s-43 -19 -43 -42zM486 288v-205c0 -22 7 -36 23 -36c10 0 19 4 27 21h10c0 -45 -46 -78 -107 -78
c-65 0 -102 18 -117 57c-31 -40 -78 -57 -134 -57c-90 0 -168 61 -168 165c0 149 131 198 220 198c55 0 76 -16 76 -16v72c0 57 -22 95 -52 95c-26 0 -39 -26 -39 -79c0 -44 -38 -77 -97 -77c-47 0 -73 26 -73 66c0 73 88 115 200 115c152 0 231 -94 231 -241zM194 625
c0 39 31 71 70 71c38 0 69 -32 69 -71c0 -38 -31 -70 -69 -70c-39 0 -70 32 -70 70z" />
    <glyph glyph-name="ae" unicode="&#xe6;" horiz-adv-x="845" 
d="M316 78v194c0 23 -12 47 -41 47c-46 0 -79 -61 -79 -168c0 -66 28 -104 61 -104c23 0 42 9 59 31zM498 315h160c-4 117 -33 189 -75 189c-50 0 -81 -87 -85 -189zM823 312v-21h-324c7 -127 68 -198 158 -198c36 0 136 6 158 109h10c-12 -137 -108 -212 -235 -212
c-32 0 -62 5 -89 14c-17 -9 -38 -14 -62 -14c-65 0 -102 18 -117 57c-31 -40 -78 -57 -134 -57c-90 0 -168 61 -168 165c0 149 131 198 220 198c55 0 76 -16 76 -16v72c0 57 -22 95 -52 95c-26 0 -39 -26 -39 -79c0 -44 -38 -77 -97 -77c-47 0 -73 26 -73 66
c0 73 88 115 200 115c69 0 124 -20 162 -55c43 35 98 55 162 55c136 0 244 -95 244 -217z" />
    <glyph glyph-name="ccedilla" unicode="&#xe7;" horiz-adv-x="523" 
d="M236 -40v10l27 21c-144 8 -243 117 -243 271c0 158 106 267 258 267c121 0 218 -62 218 -139c0 -44 -33 -73 -67 -73c-138 0 -55 187 -153 187c-53 0 -81 -67 -81 -191c0 -141 60 -220 147 -220c76 0 133 41 151 109h10c-7 -129 -87 -209 -214 -212l-25 -18
c61 0 116 -23 116 -79c0 -45 -38 -82 -87 -82c-28 0 -60 13 -90 44l3 10c13 -5 25 -8 35 -8c29 0 47 19 47 49c0 31 -21 54 -52 54z" />
    <glyph glyph-name="egrave" unicode="&#xe8;" horiz-adv-x="539" 
d="M192 315h160c-4 117 -33 189 -75 189c-50 0 -81 -87 -85 -189zM517 312v-21h-324c7 -127 68 -198 158 -198c36 0 136 6 158 109h10c-12 -137 -108 -212 -235 -212c-155 0 -264 112 -264 272c0 159 104 267 253 267c136 0 244 -95 244 -217zM352 555h-45l-119 110h83z" />
    <glyph glyph-name="eacute" unicode="&#xe9;" horiz-adv-x="539" 
d="M192 315h160c-4 117 -33 189 -75 189c-50 0 -81 -87 -85 -189zM517 312v-21h-324c7 -127 68 -198 158 -198c36 0 136 6 158 109h10c-12 -137 -108 -212 -235 -212c-155 0 -264 112 -264 272c0 159 104 267 253 267c136 0 244 -95 244 -217zM352 665l-119 -110h-45l81 110
h83z" />
    <glyph glyph-name="ecircumflex" unicode="&#xea;" horiz-adv-x="539" 
d="M192 315h160c-4 117 -33 189 -75 189c-50 0 -81 -87 -85 -189zM517 312v-21h-324c7 -127 68 -198 158 -198c36 0 136 6 158 109h10c-12 -137 -108 -212 -235 -212c-155 0 -264 112 -264 272c0 159 104 267 253 267c136 0 244 -95 244 -217zM378 555h-25l-83 64l-82 -64
h-25l71 110h73z" />
    <glyph glyph-name="edieresis" unicode="&#xeb;" horiz-adv-x="539" 
d="M192 315h160c-4 117 -33 189 -75 189c-50 0 -81 -87 -85 -189zM517 312v-21h-324c7 -127 68 -198 158 -198c36 0 136 6 158 109h10c-12 -137 -108 -212 -235 -212c-155 0 -264 112 -264 272c0 159 104 267 253 267c136 0 244 -95 244 -217zM126 625c0 40 31 70 70 70
c38 0 69 -30 69 -70c0 -37 -31 -69 -69 -69c-39 0 -70 32 -70 69zM276 625c0 40 32 70 70 70c39 0 70 -30 70 -70c0 -37 -31 -69 -70 -69c-38 0 -70 32 -70 69z" />
    <glyph glyph-name="igrave" unicode="&#xec;" horiz-adv-x="304" 
d="M237 519v-409c0 -49 22 -100 47 -100v-10h-264v10c25 0 47 50 47 96v264c0 50 -22 98 -47 98v10c74 5 154 18 205 41h12zM175 561l-119 110h83l81 -110h-45z" />
    <glyph glyph-name="iacute" unicode="&#xed;" horiz-adv-x="304" 
d="M237 519v-409c0 -49 22 -100 47 -100v-10h-264v10c25 0 47 50 47 96v264c0 50 -22 98 -47 98v10c74 5 154 18 205 41h12zM101 561h-45l81 110h83z" />
    <glyph glyph-name="icircumflex" unicode="&#xee;" horiz-adv-x="304" 
d="M237 519v-409c0 -49 22 -100 47 -100v-10h-264v10c25 0 47 50 47 96v264c0 50 -22 98 -47 98v10c74 5 154 18 205 41h12zM221 561l-83 64l-82 -64h-25l71 110h73l71 -110h-25z" />
    <glyph glyph-name="idieresis" unicode="&#xef;" horiz-adv-x="304" 
d="M237 519v-409c0 -49 22 -100 47 -100v-10h-264v10c25 0 47 50 47 96v264c0 50 -22 98 -47 98v10c74 5 154 18 205 41h12zM144 631c0 40 32 70 70 70c39 0 70 -30 70 -70c0 -37 -31 -69 -70 -69c-38 0 -70 32 -70 69zM-6 631c0 40 31 70 70 70c38 0 69 -30 69 -70
c0 -37 -31 -69 -69 -69c-39 0 -70 32 -70 69z" />
    <glyph glyph-name="ntilde" unicode="&#xf1;" horiz-adv-x="654" 
d="M417 106v259c0 60 -29 90 -86 90c-35 0 -72 -22 -94 -56v-289c0 -49 22 -100 47 -100v-10h-264v10c25 0 47 50 47 96v264c0 50 -22 98 -47 98v10c74 5 154 18 205 41h12v-75c38 47 105 85 181 85c109 0 169 -68 169 -191v-228c0 -49 22 -100 47 -100v-10h-264v10
c25 0 47 50 47 96zM182 557h-10c2 77 40 130 93 130c54 0 71 -37 146 -37c39 0 58 12 60 37h10c2 -81 -33 -130 -94 -130c-66 0 -99 38 -154 38c-26 0 -51 -9 -51 -38z" />
    <glyph glyph-name="ograve" unicode="&#xf2;" horiz-adv-x="597" 
d="M20 259c0 154 122 270 280 270c156 0 277 -116 277 -270c0 -153 -121 -269 -277 -269c-158 0 -280 116 -280 269zM202 260c0 -192 44 -245 97 -245s96 53 96 245c0 191 -43 244 -96 244s-97 -53 -97 -244zM336 555l-119 110h83l81 -110h-45z" />
    <glyph glyph-name="oacute" unicode="&#xf3;" horiz-adv-x="597" 
d="M20 259c0 154 122 270 280 270c156 0 277 -116 277 -270c0 -153 -121 -269 -277 -269c-158 0 -280 116 -280 269zM202 260c0 -192 44 -245 97 -245s96 53 96 245c0 191 -43 244 -96 244s-97 -53 -97 -244zM262 555h-45l81 110h83z" />
    <glyph glyph-name="ocircumflex" unicode="&#xf4;" horiz-adv-x="597" 
d="M202 260c0 -192 44 -245 97 -245s96 53 96 245c0 191 -43 244 -96 244s-97 -53 -97 -244zM20 259c0 154 122 270 280 270c156 0 277 -116 277 -270c0 -153 -121 -269 -277 -269c-158 0 -280 116 -280 269zM407 555h-25l-83 64l-82 -64h-25l71 110h73z" />
    <glyph glyph-name="otilde" unicode="&#xf5;" horiz-adv-x="597" 
d="M202 260c0 -192 44 -245 97 -245s96 53 96 245c0 191 -43 244 -96 244s-97 -53 -97 -244zM20 259c0 154 122 270 280 270c156 0 277 -116 277 -270c0 -153 -121 -269 -277 -269c-158 0 -280 116 -280 269zM154 557h-10c2 77 40 130 93 130c54 0 71 -37 146 -37
c39 0 58 12 60 37h10c2 -81 -33 -130 -94 -130c-66 0 -99 38 -154 38c-26 0 -51 -9 -51 -38z" />
    <glyph glyph-name="odieresis" unicode="&#xf6;" horiz-adv-x="597" 
d="M20 259c0 154 122 270 280 270c156 0 277 -116 277 -270c0 -153 -121 -269 -277 -269c-158 0 -280 116 -280 269zM202 260c0 -192 44 -245 97 -245s96 53 96 245c0 191 -43 244 -96 244s-97 -53 -97 -244zM305 625c0 40 32 70 70 70c39 0 70 -30 70 -70
c0 -37 -31 -69 -70 -69c-38 0 -70 32 -70 69zM155 625c0 40 31 70 70 70c38 0 69 -30 69 -70c0 -37 -31 -69 -69 -69c-39 0 -70 32 -70 69z" />
    <glyph glyph-name="divide" unicode="&#xf7;" horiz-adv-x="342" 
d="M171 57c-49 0 -88 37 -88 83s39 83 88 83s88 -37 88 -83s-39 -83 -88 -83zM171 420c-49 0 -88 37 -88 83s39 83 88 83s88 -37 88 -83s-39 -83 -88 -83zM322 319h-302v30h302v-30z" />
    <glyph glyph-name="oslash" unicode="&#xf8;" horiz-adv-x="597" 
d="M202 260c0 -45 2 -83 7 -114l172 268c-17 68 -48 90 -82 90c-53 0 -97 -53 -97 -244zM388 373l-171 -268c17 -68 48 -90 82 -90c53 0 96 53 96 245c0 45 -2 82 -7 113zM150 0h-35l24 37c-73 48 -119 128 -119 222c0 154 122 270 280 270c49 0 95 -11 134 -32l14 22h34
l-23 -36c72 -48 118 -129 118 -224c0 -153 -121 -269 -277 -269c-50 0 -96 12 -136 32z" />
    <glyph glyph-name="ugrave" unicode="&#xf9;" horiz-adv-x="659" 
d="M422 135v235c0 50 -22 98 -47 98v10c74 5 154 18 205 41h12v-386c0 -93 22 -123 47 -123v-10h-217v73c-29 -41 -95 -83 -187 -83c-103 0 -168 62 -168 177v203c0 50 -22 98 -47 98v10c74 5 154 18 205 41h12v-360c0 -56 30 -105 87 -105c48 0 98 34 98 81zM367 555
l-119 110h83l81 -110h-45z" />
    <glyph glyph-name="uacute" unicode="&#xfa;" horiz-adv-x="659" 
d="M422 135v235c0 50 -22 98 -47 98v10c74 5 154 18 205 41h12v-386c0 -93 22 -123 47 -123v-10h-217v73c-29 -41 -95 -83 -187 -83c-103 0 -168 62 -168 177v203c0 50 -22 98 -47 98v10c74 5 154 18 205 41h12v-360c0 -56 30 -105 87 -105c48 0 98 34 98 81zM293 555h-45
l81 110h83z" />
    <glyph glyph-name="ucircumflex" unicode="&#xfb;" horiz-adv-x="659" 
d="M422 135v235c0 50 -22 98 -47 98v10c74 5 154 18 205 41h12v-386c0 -93 22 -123 47 -123v-10h-217v73c-29 -41 -95 -83 -187 -83c-103 0 -168 62 -168 177v203c0 50 -22 98 -47 98v10c74 5 154 18 205 41h12v-360c0 -56 30 -105 87 -105c48 0 98 34 98 81zM413 555
l-83 64l-82 -64h-25l71 110h73l71 -110h-25z" />
    <glyph glyph-name="udieresis" unicode="&#xfc;" horiz-adv-x="659" 
d="M422 135v235c0 50 -22 98 -47 98v10c74 5 154 18 205 41h12v-386c0 -93 22 -123 47 -123v-10h-217v73c-29 -41 -95 -83 -187 -83c-103 0 -168 62 -168 177v203c0 50 -22 98 -47 98v10c74 5 154 18 205 41h12v-360c0 -56 30 -105 87 -105c48 0 98 34 98 81zM336 625
c0 40 32 70 70 70c39 0 70 -30 70 -70c0 -37 -31 -69 -70 -69c-38 0 -70 32 -70 69zM186 625c0 40 31 70 70 70c38 0 69 -30 69 -70c0 -37 -31 -69 -69 -69c-39 0 -70 32 -70 69z" />
    <glyph glyph-name="yacute" unicode="&#xfd;" horiz-adv-x="628" 
d="M150 -239c-151 0 -159 175 -51 175c98 0 60 -105 126 -105c23 0 45 16 64 58l-190 521c-21 58 -54 99 -79 99v10h280v-10c-24 0 -35 -41 -14 -99l98 -270l102 273c21 55 -12 96 -36 96v10h158v-10c-25 0 -78 -41 -98 -96l-187 -504c-37 -101 -93 -148 -173 -148zM286 555
h-45l81 110h83z" />
    <glyph glyph-name="ydieresis" unicode="&#xff;" horiz-adv-x="628" 
d="M150 -239c-151 0 -159 175 -51 175c98 0 60 -105 126 -105c23 0 45 16 64 58l-190 521c-21 58 -54 99 -79 99v10h280v-10c-24 0 -35 -41 -14 -99l98 -270l102 273c21 55 -12 96 -36 96v10h158v-10c-25 0 -78 -41 -98 -96l-187 -504c-37 -101 -93 -148 -173 -148zM329 625
c0 40 32 70 70 70c39 0 70 -30 70 -70c0 -37 -31 -69 -70 -69c-38 0 -70 32 -70 69zM179 625c0 40 31 70 70 70c38 0 69 -30 69 -70c0 -37 -31 -69 -69 -69c-39 0 -70 32 -70 69z" />
    <glyph glyph-name="Dcroat" unicode="&#x110;" horiz-adv-x="687" 
d="M302 399v-30h-55v-339h10c148 0 228 117 228 330c0 215 -82 336 -230 336h-8v-297h55zM30 399h37v226c0 60 -22 91 -47 91v10h255c265 0 392 -127 392 -363c0 -241 -132 -363 -392 -363h-255v10c25 0 47 31 47 91v268h-37v30z" />
    <glyph glyph-name="dcroat" unicode="&#x111;" horiz-adv-x="642" 
d="M406 98v246c-17 85 -60 142 -106 142c-60 0 -100 -89 -100 -227c0 -135 50 -218 121 -218c36 0 72 25 85 57zM575 778v-668c0 -49 22 -100 47 -100v-10h-216v48c-49 -41 -111 -58 -170 -58c-123 0 -216 97 -216 260c0 164 94 279 237 279c68 0 114 -25 149 -68v147h-76
v22h76c0 50 -22 97 -47 97v10c74 5 153 18 204 41h12z" />
    <glyph glyph-name="dotlessi" unicode="&#x131;" horiz-adv-x="304" 
d="M237 519v-409c0 -49 22 -100 47 -100v-10h-264v10c25 0 47 50 47 96v264c0 50 -22 98 -47 98v10c74 5 154 18 205 41h12z" />
    <glyph glyph-name="Lslash" unicode="&#x141;" horiz-adv-x="580" 
d="M319 539l15 -15l-87 -87v-407h139c120 0 146 67 164 157h10l-5 -187h-535v10c25 0 47 31 47 91v156l-28 -27l-15 14l43 43v338c0 60 -22 91 -47 91v10h273v-10c-24 0 -46 -31 -46 -91v-158z" />
    <glyph glyph-name="lslash" unicode="&#x142;" horiz-adv-x="304" 
d="M255 487l15 -15l-33 -33v-329c0 -49 22 -100 47 -100v-10h-264v10c25 0 47 50 47 96v163l-19 -19l-15 15l34 34v319c0 50 -22 98 -47 98v10c74 5 154 18 205 41h12v-298z" />
    <glyph glyph-name="OE" unicode="&#x152;" horiz-adv-x="1001" 
d="M202 363c0 -239 67 -342 149 -342c80 0 148 103 148 342s-68 342 -148 342c-82 0 -149 -103 -149 -342zM20 363c0 239 147 374 331 374c31 0 61 -4 90 -12v1h535l5 -186h-9c-18 90 -45 156 -164 156h-140v-319h96c97 0 142 48 142 106h10v-239h-10c0 58 -45 105 -142 105
h-96v-319h140c119 0 146 67 164 157h9l-5 -187h-535v2c-29 -8 -59 -12 -90 -12c-184 0 -331 134 -331 373z" />
    <glyph glyph-name="oe" unicode="&#x153;" horiz-adv-x="923" 
d="M202 260c0 -192 44 -245 97 -245s96 53 96 245c0 191 -43 244 -96 244s-97 -53 -97 -244zM576 315h160c-4 117 -33 189 -75 189c-50 0 -81 -87 -85 -189zM20 259c0 154 122 270 280 270c71 0 135 -24 184 -65c44 41 103 65 173 65c136 0 244 -95 244 -217v-21h-324
c7 -127 68 -198 158 -198c36 0 136 6 158 109h10c-12 -137 -108 -212 -235 -212c-73 0 -136 25 -181 68c-49 -43 -114 -68 -187 -68c-158 0 -280 116 -280 269z" />
    <glyph glyph-name="Scaron" unicode="&#x160;" horiz-adv-x="630" 
d="M308 20c75 0 122 33 122 105c0 149 -409 136 -409 394c0 132 105 218 292 218c161 0 265 -81 263 -174c-1 -54 -36 -100 -91 -100c-63 0 -90 38 -89 92c1 58 14 152 -87 152c-65 0 -108 -48 -108 -120c0 -170 409 -168 409 -385c0 -129 -124 -212 -304 -212
s-287 81 -285 174c1 54 36 100 91 100c63 0 90 -38 89 -92c-1 -58 6 -152 107 -152zM233 860l83 -64l82 64h25l-71 -110h-73l-71 110h25z" />
    <glyph glyph-name="scaron" unicode="&#x161;" horiz-adv-x="488" 
d="M244 504c-24 0 -46 -19 -46 -54c0 -133 270 -149 270 -303c0 -92 -94 -157 -222 -157c-127 0 -226 40 -226 126c0 45 33 84 80 84c117 0 55 -185 146 -185c32 0 51 15 51 45c0 127 -272 156 -272 318c0 82 93 151 216 151c140 0 221 -54 221 -131c0 -43 -30 -70 -77 -70
c-112 0 -74 176 -141 176zM162 665l83 -64l82 64h25l-71 -110h-73l-71 110h25z" />
    <glyph glyph-name="Ydieresis" unicode="&#x178;" horiz-adv-x="654" 
d="M418 111c0 -64 22 -100 46 -100v-11h-273v11c25 0 47 36 47 100v217l-133 293c-24 54 -60 95 -85 95v10h276v-10c-25 0 -33 -41 -8 -95l114 -251l114 251c25 54 -3 95 -28 95v10h146v-10c-25 0 -61 -41 -85 -95l-131 -289v-221zM338 820c0 40 32 70 70 70
c39 0 70 -30 70 -70c0 -37 -31 -69 -70 -69c-38 0 -70 32 -70 69zM188 820c0 40 31 70 70 70c38 0 69 -30 69 -70c0 -37 -31 -69 -69 -69c-39 0 -70 32 -70 69z" />
    <glyph glyph-name="Zcaron" unicode="&#x17d;" horiz-adv-x="591" 
d="M20 0v31l341 665h-159c-94 0 -146 -66 -164 -156h-10l5 186h531v-30l-341 -666h174c94 0 146 67 164 157h10l-5 -187h-546zM226 860l83 -64l82 64h25l-71 -110h-73l-71 110h25z" />
    <glyph glyph-name="zcaron" unicode="&#x17e;" horiz-adv-x="490" 
d="M20 0v25l248 469h-72c-94 0 -146 -72 -164 -162h-10l5 187h434v-25l-246 -469h81c94 0 146 72 164 162h10l-5 -187h-445zM173 665l83 -64l82 64h25l-71 -110h-73l-71 110h25z" />
    <glyph glyph-name="florin" unicode="&#x192;" horiz-adv-x="768" 
d="M268 494v25h68l5 31c23 140 141 187 238 187c100 0 178 -49 168 -109c-8 -44 -53 -72 -86 -72c-43 0 -84 25 -76 80c7 44 9 77 -12 77s-32 -30 -40 -74l-22 -120h110v-25h-114l-79 -451c-37 -214 -154 -261 -251 -261c-100 0 -157 48 -157 109c0 52 37 80 73 80
c35 0 69 -26 69 -79c0 -50 1 -86 22 -86s33 28 40 70l108 618h-64z" />
    <glyph glyph-name="circumflex" unicode="&#x2c6;" horiz-adv-x="257" 
d="M211 627l-83 64l-82 -64h-25l71 110h73l71 -110h-25z" />
    <glyph glyph-name="caron" unicode="&#x2c7;" horiz-adv-x="257" 
d="M46 737l83 -64l82 64h25l-71 -110h-73l-71 110h25z" />
    <glyph glyph-name="breve" unicode="&#x2d8;" horiz-adv-x="291" 
d="M271 713c0 -62 -56 -113 -125 -113c-70 0 -126 51 -126 113h10c0 -29 71 -41 116 -41c44 0 115 12 115 41h10z" />
    <glyph glyph-name="dotaccent" unicode="&#x2d9;" horiz-adv-x="181" 
d="M21 661c0 37 31 65 70 65c38 0 69 -28 69 -65c0 -35 -31 -65 -69 -65c-39 0 -70 30 -70 65z" />
    <glyph glyph-name="ring" unicode="&#x2da;" horiz-adv-x="181" 
d="M48 698c0 -23 20 -42 43 -42s42 19 42 42s-19 42 -42 42s-43 -19 -43 -42zM21 698c0 39 31 71 70 71c38 0 69 -32 69 -71c0 -38 -31 -70 -69 -70c-39 0 -70 32 -70 70z" />
    <glyph glyph-name="ogonek" unicode="&#x2db;" horiz-adv-x="230" 
d="M157 0c-25 -32 -42 -74 -42 -109c0 -32 14 -59 44 -59c13 0 29 5 48 17l3 -9c-29 -20 -62 -29 -92 -29c-53 0 -98 28 -98 70c0 48 56 95 90 119h47z" />
    <glyph glyph-name="tilde" unicode="&#x2dc;" horiz-adv-x="350" 
d="M30 600h-10c2 77 40 130 93 130c54 0 71 -37 146 -37c39 0 58 12 60 37h10c2 -81 -33 -130 -94 -130c-66 0 -99 38 -154 38c-26 0 -51 -9 -51 -38z" />
    <glyph glyph-name="hungarumlaut" unicode="&#x2dd;" horiz-adv-x="375" 
d="M205 560h-22c34 58 48 119 42 177h130c-29 -58 -80 -119 -150 -177zM41 560h-21c34 58 47 119 41 177h131c-30 -58 -81 -119 -151 -177z" />
    <glyph glyph-name="uni03BC" unicode="&#x3bc;" horiz-adv-x="659" 
d="M422 135v235c0 50 -22 98 -47 98v10c74 5 154 18 205 41h12v-386c0 -93 22 -123 47 -123v-10h-217v73c-29 -41 -95 -83 -187 -83c-32 0 -61 6 -85 18l16 -62c13 -51 -1 -114 -53 -114c-53 0 -69 34 -65 86l14 164c3 33 4 73 5 112v176c0 50 -22 98 -47 98v10
c74 5 154 18 205 41h12v-360c0 -56 30 -105 87 -105c48 0 98 34 98 81z" />
    <glyph glyph-name="endash" unicode="&#x2013;" horiz-adv-x="515" 
d="M495 358h-475v21h475v-21z" />
    <glyph glyph-name="emdash" unicode="&#x2014;" horiz-adv-x="979" 
d="M959 358h-939v21h939v-21z" />
    <glyph glyph-name="quoteleft" unicode="&#x2018;" horiz-adv-x="216" 
d="M101 698c58 0 95 -36 95 -84c0 -47 -38 -83 -88 -83s-88 36 -88 83c0 65 39 120 132 163l11 -18c-32 -19 -54 -39 -62 -61z" />
    <glyph glyph-name="quoteright" unicode="&#x2019;" horiz-adv-x="216" 
d="M115 610c-58 0 -95 36 -95 84c0 47 38 83 88 83s88 -36 88 -83c0 -65 -39 -120 -132 -163l-11 18c32 19 54 39 62 61z" />
    <glyph glyph-name="quotesinglbase" unicode="&#x201a;" horiz-adv-x="216" 
d="M115 -1c-58 0 -95 36 -95 84c0 47 38 83 88 83s88 -36 88 -83c0 -65 -39 -120 -132 -163l-11 18c32 19 54 39 62 61z" />
    <glyph glyph-name="quotedblleft" unicode="&#x201c;" horiz-adv-x="408" 
d="M101 698c58 0 95 -36 95 -84c0 -47 -38 -83 -88 -83s-88 36 -88 83c0 65 39 120 132 163l11 -18c-32 -19 -54 -39 -62 -61zM293 698c58 0 95 -36 95 -84c0 -47 -38 -83 -88 -83s-88 36 -88 83c0 65 39 120 132 163l11 -18c-32 -19 -54 -39 -62 -61z" />
    <glyph glyph-name="quotedblright" unicode="&#x201d;" horiz-adv-x="407" 
d="M115 560c-58 0 -95 36 -95 84c0 47 38 83 88 83s88 -36 88 -83c0 -65 -39 -120 -132 -163l-11 18c32 19 54 39 62 61zM306 559c-58 0 -95 36 -95 84c0 47 38 83 88 83s88 -36 88 -83c0 -65 -39 -120 -132 -163l-11 18c32 19 54 39 62 61z" />
    <glyph glyph-name="quotedblbase" unicode="&#x201e;" horiz-adv-x="406" 
d="M115 -1c-58 0 -95 36 -95 84c0 47 38 83 88 83s88 -36 88 -83c0 -65 -39 -120 -132 -163l-11 18c32 19 54 39 62 61zM305 -1c-58 0 -95 36 -95 84c0 47 38 83 88 83s88 -36 88 -83c0 -65 -39 -120 -132 -163l-11 18c32 19 54 39 62 61z" />
    <glyph glyph-name="dagger" unicode="&#x2020;" horiz-adv-x="520" 
d="M313 663l-44 -138l151 24c10 2 20 3 28 3c33 0 52 -14 52 -55c0 -39 -19 -60 -48 -60c-10 0 -20 2 -32 7l-151 64c21 -42 41 -97 64 -131c-48 -140 -62 -229 -62 -475h-22c1 246 -12 335 -62 475c23 34 44 89 64 131l-150 -64c-12 -5 -23 -7 -33 -7c-29 0 -48 21 -48 60
c0 41 19 55 52 55c9 0 19 -1 29 -3l150 -24l-44 138c-14 43 2 74 54 74c51 0 66 -31 52 -74z" />
    <glyph glyph-name="daggerdbl" unicode="&#x2021;" horiz-adv-x="463" 
d="M287 667l-47 -134l132 39c10 3 19 4 27 4c28 0 44 -15 44 -50s-16 -51 -43 -51c-8 0 -18 2 -28 5l-132 38l38 -133c12 -42 12 -95 0 -136l-38 -134l132 39c10 3 19 4 27 4c28 0 44 -15 44 -50c0 -34 -16 -51 -43 -51c-8 0 -18 2 -28 5l-132 38l47 -132
c15 -42 -10 -71 -54 -71c-46 0 -71 29 -57 71l48 132l-132 -38c-10 -3 -20 -5 -28 -5c-27 0 -43 17 -43 51c0 35 16 50 44 50c8 0 17 -1 27 -4l132 -39l-38 134c-12 41 -12 94 0 136l38 133l-132 -38c-10 -3 -20 -5 -28 -5c-27 0 -43 16 -43 51s16 50 44 50c8 0 17 -1 27 -4
l132 -39l-48 134c-14 40 11 70 57 70c44 0 69 -30 54 -70z" />
    <glyph glyph-name="bullet" unicode="&#x2022;" horiz-adv-x="206" 
d="M21 394c0 41 37 74 83 74c45 0 82 -33 82 -74s-37 -74 -82 -74c-46 0 -83 33 -83 74z" />
    <glyph glyph-name="ellipsis" unicode="&#x2026;" horiz-adv-x="637" 
d="M108 -9c-49 0 -88 37 -88 83s39 83 88 83s88 -37 88 -83s-39 -83 -88 -83zM318 -9c-49 0 -88 37 -88 83s39 83 88 83s88 -37 88 -83s-39 -83 -88 -83zM528 -9c-49 0 -88 37 -88 83s39 83 88 83s88 -37 88 -83s-39 -83 -88 -83z" />
    <glyph glyph-name="perthousand" unicode="&#x2030;" horiz-adv-x="1103" 
d="M524 195c0 -147 22 -193 54 -193s54 46 54 193s-22 194 -54 194s-54 -47 -54 -194zM419 195c0 139 74 207 159 207s158 -68 158 -207s-73 -205 -158 -205s-159 66 -159 205zM124 530c0 -147 22 -192 54 -192c33 0 54 45 54 192c0 148 -21 194 -54 194
c-32 0 -54 -46 -54 -194zM185 0l361 726h33l-361 -726h-33zM20 530c0 139 73 207 158 207s159 -68 159 -207s-74 -205 -159 -205s-158 66 -158 205zM871 195c0 -147 22 -193 54 -193s54 46 54 193s-22 194 -54 194s-54 -47 -54 -194zM766 195c0 139 74 207 159 207
s158 -68 158 -207s-73 -205 -158 -205s-159 66 -159 205z" />
    <glyph glyph-name="guilsinglleft" unicode="&#x2039;" horiz-adv-x="272" 
d="M20 247l191 249h41l-180 -249l180 -249h-41z" />
    <glyph glyph-name="guilsinglright" unicode="&#x203a;" horiz-adv-x="272" 
d="M252 247l-191 -249h-41l180 249l-180 249h41z" />
    <glyph glyph-name="fraction" unicode="&#x2044;" horiz-adv-x="448" 
d="M20 0l361 726h47l-361 -726h-47z" />
    <glyph glyph-name="Euro" unicode="&#x20ac;" horiz-adv-x="664" 
d="M380 737c161 0 265 -81 263 -174c-1 -54 -36 -100 -91 -100c-63 0 -90 38 -89 92c1 58 14 152 -87 152c-90 0 -172 -88 -174 -287h58v-30h-58c2 -32 6 -61 12 -88h46v-30h-37c33 -100 104 -158 201 -158c114 0 193 71 205 184h10c12 -182 -106 -308 -289 -308
c-172 0 -292 108 -322 282h-40v30h35c-2 20 -3 40 -3 61c0 9 0 18 1 27h-33v30h35c23 202 170 317 357 317z" />
    <glyph glyph-name="trademark" unicode="&#x2122;" horiz-adv-x="959" 
d="M424 726l3 -111h-6c-10 54 -26 93 -97 93h-47v-352c0 -36 13 -54 28 -54v-6h-162v6c15 0 28 18 28 54v352h-47c-71 0 -87 -39 -97 -93h-6l3 111h400zM911 362c0 -38 13 -59 27 -59v-7h-161v7c14 0 27 21 27 59v300l-126 -366h-49l-121 349v-289c0 -36 13 -54 28 -54v-6
h-73v6c14 0 28 18 28 54v302c0 44 -25 62 -40 62v6h143l106 -307l106 307h132v-6c-14 0 -27 -18 -27 -54v-304z" />
    <glyph glyph-name="minus" unicode="&#x2212;" horiz-adv-x="342" 
d="M322 319h-302v30h302v-30z" />
    <glyph glyph-name="uniE001" unicode="&#xe001;" horiz-adv-x="874" 
d="M502 389l-179 -480c-38 -101 -93 -148 -173 -148c-151 0 -159 175 -51 175c98 0 60 -105 126 -105c23 0 45 16 64 58l-190 521c-21 58 -54 99 -79 99v10h280v-10c-24 0 -35 -41 -14 -99l98 -270l102 273c79 219 155 296 276 296c109 0 124 -170 -16 -170
c-138 0 -204 -41 -244 -150zM610 0v10c25 0 47 50 47 96v264c0 50 -22 98 -47 98v10c74 5 154 18 205 41h12v-409c0 -49 22 -100 47 -100v-10h-264z" />
    <glyph glyph-name="uniE002" unicode="&#xe002;" horiz-adv-x="1316" 
d="M320 566l-135 -367h268zM494 85l-31 84h-288l-25 -69c-24 -65 -2 -90 39 -90v-10h-169v10c38 0 77 37 97 93l227 623h109l225 -619c86 -238 122 -355 254 -355c124 0 149 200 303 200c117 0 85 -232 -268 -232c-195 0 -380 115 -473 365z" />
    <glyph glyph-name="uniE003" unicode="&#xe003;" horiz-adv-x="1083" 
d="M316 78v194c0 23 -12 47 -41 47c-46 0 -79 -61 -79 -168c0 -66 28 -104 61 -104c23 0 42 9 59 31zM486 288v-205c0 -227 85 -341 201 -341c140 0 165 213 319 213c117 0 68 -245 -285 -245c-227 0 -382 146 -399 337c-31 -40 -78 -57 -134 -57c-90 0 -168 61 -168 165
c0 149 131 198 220 198c55 0 76 -16 76 -16v72c0 57 -22 95 -52 95c-26 0 -39 -26 -39 -79c0 -44 -38 -77 -97 -77c-47 0 -73 26 -73 66c0 73 88 115 200 115c152 0 231 -94 231 -241z" />
    <glyph glyph-name="uniE004" unicode="&#xe004;" horiz-adv-x="835" 
d="M438 30h16c118 0 179 58 179 172c0 112 -62 169 -185 169h-10v-341zM438 696v-295h1c92 0 143 52 143 144c0 95 -53 151 -142 151h-2zM258 111v482c0 38 -14 103 -69 103c-30 0 -54 -23 -54 -44c0 -46 75 -67 75 -133c0 -46 -35 -80 -84 -80c-64 0 -106 53 -106 115
c0 93 76 172 191 172h270c179 0 283 -64 283 -170c0 -77 -50 -134 -124 -148c97 -18 175 -101 175 -195c0 -146 -94 -213 -275 -213h-329v11c25 0 47 36 47 100z" />
    <glyph glyph-name="uniE005" unicode="&#xe005;" horiz-adv-x="878" 
d="M438 696v-666h10c148 0 228 117 228 330c0 215 -82 336 -230 336h-8zM258 101v492c0 38 -14 103 -69 103c-30 0 -54 -23 -54 -44c0 -46 75 -67 75 -133c0 -46 -35 -80 -84 -80c-64 0 -106 53 -106 115c0 93 76 172 191 172h255c265 0 392 -127 392 -363
c0 -241 -132 -363 -392 -363h-255v10c25 0 47 31 47 91z" />
    <glyph glyph-name="uniE006" unicode="&#xe006;" horiz-adv-x="771" 
d="M258 593c0 38 -14 103 -69 103c-30 0 -54 -23 -54 -44c0 -46 75 -67 75 -133c0 -46 -35 -80 -84 -80c-64 0 -106 53 -106 115c0 93 76 172 191 172h535l5 -186h-9c-18 90 -45 156 -164 156h-140v-319h96c97 0 142 48 142 106h10v-239h-10c0 58 -45 105 -142 105h-96v-319
h140c119 0 146 67 164 157h9l-5 -187h-535v10c25 0 47 31 47 91v492z" />
    <glyph glyph-name="uniE007" unicode="&#xe007;" horiz-adv-x="767" 
d="M258 593c0 38 -14 103 -69 103c-30 0 -54 -23 -54 -44c0 -46 75 -67 75 -133c0 -46 -35 -80 -84 -80c-64 0 -106 53 -106 115c0 93 76 172 191 172h531l5 -186h-10c-18 90 -50 156 -164 156h-135v-323h116c93 0 118 49 118 104h10v-238h-10c0 56 -25 104 -118 104h-116
v-232c0 -64 21 -100 46 -100v-11h-273v11c25 0 47 36 47 100v482z" />
    <glyph glyph-name="uniE008" unicode="&#xe008;" horiz-adv-x="703" 
d="M395 34c52 0 75 34 75 110v155c0 61 -26 93 -78 96v10h291v-10c-29 0 -47 -38 -47 -99v-318c0 -118 -88 -196 -220 -196c-96 0 -178 48 -178 118c0 44 31 73 72 73c121 0 65 -166 119 -166c26 0 41 22 41 59v131c-27 -3 -60 -7 -104 -7c-216 0 -346 147 -346 373
c0 252 156 374 360 374c161 0 265 -81 263 -174c-1 -54 -36 -100 -91 -100c-63 0 -90 38 -89 92c1 58 14 152 -87 152c-91 0 -174 -100 -174 -331c0 -204 57 -342 193 -342z" />
    <glyph glyph-name="uniE010" unicode="&#xe010;" horiz-adv-x="1480" 
d="M870 200c0 -271 80 -408 238 -408c139 0 128 160 282 160c117 0 121 -192 -273 -192c-276 0 -427 168 -427 415v167h-252v-231c0 -64 22 -100 46 -100v-11h-273v11c25 0 47 36 47 100v482c0 38 -14 103 -69 103c-30 0 -54 -23 -54 -44c0 -46 75 -67 75 -133
c0 -46 -35 -80 -84 -80c-64 0 -106 53 -106 115c0 93 76 172 191 172h273v-10c-24 0 -46 -31 -46 -91v-253h252v253c0 60 -22 91 -47 91v10h273v-10c-24 0 -46 -31 -46 -91v-425z" />
    <glyph glyph-name="uniE011" unicode="&#xe011;" horiz-adv-x="504" 
d="M258 593c0 38 -14 103 -69 103c-30 0 -54 -23 -54 -44c0 -46 75 -67 75 -133c0 -46 -35 -80 -84 -80c-64 0 -106 53 -106 115c0 93 76 172 191 172h273v-10c-24 0 -46 -31 -46 -91v-514c0 -64 22 -100 46 -100v-11h-273v11c25 0 47 36 47 100v482z" />
    <glyph glyph-name="uniE013" unicode="&#xe013;" horiz-adv-x="595" 
d="M349 593c0 38 -14 103 -69 103c-30 0 -54 -23 -54 -44c0 -46 75 -67 75 -133c0 -46 -35 -80 -84 -80c-64 0 -106 53 -106 115c0 93 76 172 191 172h273v-10c-24 0 -46 -31 -46 -91l-1 -410c0 -145 -88 -225 -256 -225c-143 0 -253 76 -251 174c1 54 36 100 91 100
c63 0 90 -38 89 -92c-1 -58 -21 -152 80 -152c42 0 67 35 67 90z" />
    <glyph glyph-name="uniE014" unicode="&#xe014;" horiz-adv-x="1476" 
d="M597 57l-145 259l-14 -17v-188c0 -64 22 -100 46 -100v-11h-273v11c25 0 47 36 47 100v482c0 38 -14 103 -69 103c-30 0 -54 -23 -54 -44c0 -46 75 -67 75 -133c0 -46 -35 -80 -84 -80c-64 0 -106 53 -106 115c0 93 76 172 191 172h273v-10c-24 0 -46 -31 -46 -91v-277
l219 266c51 62 29 102 4 102v10h174v-10c-47 0 -87 -40 -138 -102l-122 -148l214 -385c123 -221 187 -329 304 -329c124 0 149 200 303 200c117 0 85 -232 -298 -232c-187 0 -378 117 -501 337z" />
    <glyph glyph-name="uniE015" unicode="&#xe015;" horiz-adv-x="771" 
d="M258 593c0 38 -14 103 -69 103c-30 0 -54 -23 -54 -44c0 -46 75 -67 75 -133c0 -46 -35 -80 -84 -80c-64 0 -106 53 -106 115c0 93 76 172 191 172h273v-10c-24 0 -46 -31 -46 -91v-595h139c120 0 146 67 164 157h10l-5 -187h-535v10c25 0 47 31 47 91v492z" />
    <glyph glyph-name="uniE016" unicode="&#xe016;" horiz-adv-x="1034" 
d="M258 101v492c0 38 -14 103 -69 103c-30 0 -54 -23 -54 -44c0 -46 75 -67 75 -133c0 -46 -35 -80 -84 -80c-64 0 -106 53 -106 115c0 93 76 172 191 172h222l178 -519l179 519h224v-10c-24 0 -46 -31 -46 -91v-514c0 -64 22 -100 46 -100v-11h-273v11c25 0 47 36 47 100
v506l-214 -617h-83l-203 589v-488c0 -60 22 -91 46 -91v-10h-123v10c25 0 47 31 47 91z" />
    <glyph glyph-name="uniE017" unicode="&#xe017;" horiz-adv-x="834" 
d="M258 593c0 38 -14 103 -69 103c-30 0 -54 -23 -54 -44c0 -46 75 -67 75 -133c0 -46 -35 -80 -84 -80c-64 0 -106 53 -106 115c0 93 76 172 191 172h213l314 -582v481c0 60 -22 91 -47 91v10h123v-10c-24 0 -46 -31 -46 -91v-625h-156l-324 591v-490c0 -60 22 -91 46 -91
v-10h-123v10c25 0 47 31 47 91v492z" />
    <glyph glyph-name="uniE018" unicode="&#xe018;" horiz-adv-x="811" 
d="M443 696h-5v-369h10c101 0 161 68 161 183c0 117 -62 186 -166 186zM211 726h254c203 0 326 -62 326 -215c0 -152 -124 -214 -328 -214h-25v-186c0 -64 22 -100 46 -100v-11h-273v11c25 0 47 36 47 100v482c0 38 -14 103 -69 103c-30 0 -54 -23 -54 -44
c0 -46 75 -67 75 -133c0 -46 -35 -80 -84 -80c-64 0 -106 53 -106 115c0 93 76 172 191 172z" />
    <glyph glyph-name="uniE019" unicode="&#xe019;" horiz-adv-x="1458" 
d="M443 696h-5v-319h10c101 0 161 59 161 158c0 101 -62 161 -166 161zM258 111v482c0 38 -14 103 -69 103c-30 0 -54 -23 -54 -44c0 -46 75 -67 75 -133c0 -46 -35 -80 -84 -80c-64 0 -106 53 -106 115c0 93 76 172 191 172h254c203 0 326 -55 326 -190
c0 -106 -78 -163 -212 -182c247 -62 198 -602 496 -602c124 0 149 200 303 200c117 0 85 -232 -298 -232c-531 0 -483 565 -642 626v-218c0 -75 22 -117 46 -117v-11h-273v11c25 0 47 36 47 100z" />
    <glyph glyph-name="uniE020" unicode="&#xe020;" horiz-adv-x="782" 
d="M407 -143c106 0 175 88 175 192c0 211 -409 224 -409 466c0 128 105 222 292 222c161 0 265 -81 263 -174c-1 -54 -36 -100 -91 -100c-63 0 -90 38 -89 92c1 58 14 152 -87 152c-65 0 -108 -52 -108 -131c0 -204 409 -182 409 -479c0 -146 -143 -270 -351 -270
c-414 0 -462 283 -314 283c135 0 116 -253 310 -253z" />
    <glyph glyph-name="uniE021" unicode="&#xe021;" horiz-adv-x="884" 
d="M377 726c233 0 346 97 422 97c106 0 88 -173 -97 -173c-107 0 -221 33 -249 42v-591c0 -60 22 -91 47 -91v-10h-273v10c24 0 46 31 46 91v595h-79c-120 0 -146 -67 -164 -157h-10l5 187h352z" />
    <glyph glyph-name="uniE022" unicode="&#xe022;" horiz-adv-x="881" 
d="M258 593c0 38 -14 103 -69 103c-30 0 -54 -23 -54 -44c0 -46 75 -67 75 -133c0 -46 -35 -80 -84 -80c-64 0 -106 53 -106 115c0 93 76 172 191 172h273v-10c-24 0 -46 -31 -46 -91l1 -346c0 -147 56 -217 173 -217c115 0 173 67 173 201v362c0 60 -22 91 -47 91v10h123
v-10c-24 0 -46 -31 -46 -91v-353c0 -186 -93 -282 -260 -282c-198 0 -297 110 -297 320v283z" />
    <glyph glyph-name="uniE023" unicode="&#xe023;" horiz-adv-x="927" 
d="M211 726h266v-10c-41 0 -58 -34 -34 -101l164 -455l170 466c23 65 2 90 -39 90v10h169v-10c-38 0 -77 -37 -97 -93l-227 -623h-109l-216 593c-13 36 -34 103 -80 103c-22 0 -43 -21 -43 -44c0 -46 75 -67 75 -133c0 -46 -35 -80 -84 -80c-64 0 -106 53 -106 115
c0 93 76 172 191 172z" />
    <glyph glyph-name="uniE024" unicode="&#xe024;" horiz-adv-x="1250" 
d="M211 726h267v-10c-41 0 -56 -35 -34 -101l135 -413l94 287l-41 130c-20 62 -57 97 -78 97v10h306v-10c-41 0 -56 -35 -34 -101l135 -413l139 424c21 65 2 90 -39 90v10h169v-10c-38 0 -79 -37 -97 -93l-197 -623h-109l-136 432l-137 -432h-109l-187 593
c-12 37 -34 103 -80 103c-22 0 -43 -21 -43 -44c0 -46 75 -67 75 -133c0 -46 -35 -80 -84 -80c-64 0 -106 53 -106 115c0 93 76 172 191 172z" />
    <glyph glyph-name="uniE025" unicode="&#xe025;" horiz-adv-x="866" 
d="M211 726h250v-10c-25 0 -44 -32 -10 -91l100 -172l122 170c37 51 15 93 -10 93v10h172v-10c-24 0 -88 -41 -125 -93l-143 -199l184 -319c36 -63 68 -95 95 -95v-10h-315v10c25 0 43 34 8 95l-105 182l-137 -190c-36 -51 -17 -87 14 -87v-10h-172v10c25 0 89 41 121 86
l157 221l-159 276c-19 33 -49 103 -86 103c-22 0 -37 -20 -37 -39c0 -51 75 -72 75 -138c0 -46 -35 -80 -84 -80c-64 0 -106 53 -106 115c0 93 76 172 191 172z" />
    <glyph glyph-name="uniE026" unicode="&#xe026;" horiz-adv-x="794" 
d="M211 726h225v-10c-25 0 -33 -41 -8 -95l114 -251l114 251c25 54 -3 95 -28 95v10h146v-10c-25 0 -61 -41 -85 -95l-131 -289v-221c0 -64 22 -100 46 -100v-11h-273v11c25 0 47 36 47 100v217l-125 276c-11 24 -41 92 -81 92c-22 0 -37 -21 -37 -44c0 -46 75 -67 75 -133
c0 -46 -35 -80 -84 -80c-64 0 -106 53 -106 115c0 93 76 172 191 172z" />
    <glyph glyph-name="uniE027" unicode="&#xe027;" horiz-adv-x="656" 
d="M406 184v241c-16 31 -53 54 -85 54c-75 0 -121 -93 -121 -235c0 -153 40 -211 100 -211c76 0 106 151 106 151zM411 475c61 10 101 20 153 44h12v-436c0 -22 7 -36 23 -36c10 0 19 4 27 21h10c0 -45 -46 -78 -107 -78c-63 0 -120 44 -123 108c0 0 -30 -108 -149 -108
c-143 0 -237 85 -237 261c0 171 111 278 234 278c71 0 115 -19 157 -54z" />
    <glyph glyph-name="uniE028" unicode="&#xe028;" horiz-adv-x="1173" 
d="M767 372v-239c11 -66 60 -100 107 -100c59 0 99 86 99 219c0 132 -40 213 -97 213c-41 0 -89 -36 -109 -93zM551 716v10c68 5 157 18 204 41h12v-334c42 61 99 96 172 96c119 0 214 -97 214 -260c0 -164 -96 -279 -237 -279c-68 0 -116 20 -151 64l-1 1
c-24 -221 -192 -345 -402 -345c-353 0 -402 245 -285 245c154 0 179 -213 319 -213c116 0 202 114 202 341v529c0 54 -22 104 -47 104z" />
    <glyph glyph-name="uniE029" unicode="&#xe029;" horiz-adv-x="1173" 
d="M406 98v246c-17 85 -60 142 -106 142c-60 0 -100 -89 -100 -227c0 -135 50 -218 121 -218c36 0 72 25 85 57zM575 778v-695c0 -227 86 -341 202 -341c140 0 165 213 319 213c117 0 68 -245 -285 -245c-209 0 -376 123 -402 340l-3 -2c-49 -41 -111 -58 -170 -58
c-123 0 -216 97 -216 260c0 164 94 279 237 279c68 0 114 -25 149 -68v168c0 50 -22 98 -47 98v10c74 5 153 18 204 41h12z" />
    <glyph glyph-name="uniE030" unicode="&#xe030;" horiz-adv-x="650" 
d="M192 315h160c-4 117 -33 189 -75 189c-50 0 -81 -87 -85 -189zM323 -10c-194 0 -303 112 -303 272c0 159 104 267 253 267c136 0 244 -95 244 -217v-21h-324c7 -130 71 -198 186 -198c118 0 226 113 226 253c0 206 -185 233 -291 233c-150 0 -143 158 12 158
c166 0 304 -174 304 -384c0 -214 -120 -363 -307 -363z" />
    <glyph glyph-name="uniE031" unicode="&#xe031;" horiz-adv-x="816" 
d="M197 320c0 -139 31 -184 71 -184c41 0 71 45 71 184c0 138 -30 184 -71 184c-40 0 -71 -46 -71 -184zM171 -46c-16 -20 -25 -52 -25 -80c0 -52 47 -91 117 -91c75 0 124 39 124 84c0 61 -117 67 -216 87zM336 518c86 118 222 192 354 192c151 0 131 -154 -1 -154
c-74 0 -148 31 -198 31c-48 0 -94 -36 -136 -77c93 -33 159 -102 159 -187c0 -121 -112 -211 -253 -211c-49 0 -99 17 -131 38c-23 -13 -33 -24 -33 -38c0 -64 424 52 424 -177c0 -99 -97 -174 -260 -174c-138 0 -241 45 -241 127c0 45 24 76 68 91c-34 16 -56 39 -56 75
c0 49 37 84 78 108c-54 37 -88 94 -88 159c0 118 103 208 234 208c28 0 55 -4 80 -11z" />
    <glyph glyph-name="uniE032" unicode="&#xe032;" horiz-adv-x="1184" 
d="M417 110v255c0 60 -29 90 -86 90c-35 0 -72 -22 -94 -56v-289c0 -49 22 -100 47 -100v-10h-264v10c25 0 47 50 47 96v512c0 50 -22 98 -47 98v10c74 5 154 18 205 41h12v-323c38 47 105 85 181 85c109 0 169 -68 169 -191v-255c0 -227 85 -341 201 -341
c140 0 165 213 319 213c117 0 68 -245 -285 -245c-227 0 -405 145 -405 400z" />
    <glyph glyph-name="uniE033" unicode="&#xe033;" horiz-adv-x="834" 
d="M237 79c0 -227 85 -341 201 -341c140 0 165 213 319 213c117 0 68 -245 -285 -245c-227 0 -405 145 -405 400v264c0 50 -22 98 -47 98v10c74 5 154 18 205 41h12v-440zM138 561c-49 0 -88 37 -88 83s39 83 88 83s88 -37 88 -83s-39 -83 -88 -83z" />
    <glyph glyph-name="uniE034" unicode="&#xe034;" horiz-adv-x="653" 
d="M534 561c-49 0 -88 37 -88 83s39 83 88 83s88 -37 88 -83s-39 -83 -88 -83zM362 -290c-353 0 -402 245 -285 245c154 0 179 -213 292 -213c67 0 94 44 94 152v476c0 50 -22 98 -47 98v10c74 5 154 18 205 41h12v-571c0 -155 -118 -238 -271 -238z" />
    <glyph glyph-name="uniE035" unicode="&#xe035;" horiz-adv-x="1324" 
d="M468 4l-186 246l-45 -40v-100c0 -49 22 -100 47 -100v-10h-264v10c25 0 47 50 47 96v512c0 50 -22 98 -47 98v10c74 5 154 18 205 41h12v-517l192 166c55 47 31 93 7 93v10h194v-10c-33 0 -98 -39 -146 -82l-66 -59l198 -287c129 -187 240 -341 356 -341
c140 0 120 213 274 213c117 0 68 -245 -275 -245c-226 0 -356 101 -503 296z" />
    <glyph glyph-name="uniE036" unicode="&#xe036;" horiz-adv-x="834" 
d="M237 83c0 -227 85 -341 201 -341c140 0 165 213 319 213c117 0 68 -245 -285 -245c-227 0 -405 145 -405 400v508c0 50 -22 98 -47 98v10c74 5 154 18 205 41h12v-684z" />
    <glyph glyph-name="uniE037" unicode="&#xe037;" horiz-adv-x="1481" 
d="M397 106v259c0 60 -25 90 -76 90c-31 0 -64 -22 -84 -55v-290c0 -49 22 -100 47 -100v-10h-264v10c25 0 47 50 47 96v264c0 50 -22 98 -47 98v10c74 5 154 18 205 41h12v-74c36 47 99 84 171 84c70 0 118 -31 142 -90c35 50 101 90 175 90c103 0 159 -68 159 -191v-255
c0 -227 85 -341 201 -341c140 0 165 213 319 213c117 0 68 -245 -285 -245c-227 0 -405 145 -405 400v255c0 60 -25 90 -76 90c-28 0 -58 -18 -78 -46c4 -21 7 -45 7 -71v-228c0 -49 22 -100 47 -100v-10h-264v10c25 0 47 50 47 96z" />
    <glyph glyph-name="uniE038" unicode="&#xe038;" horiz-adv-x="1184" 
d="M417 110v255c0 60 -29 90 -86 90c-35 0 -72 -22 -94 -56v-289c0 -49 22 -100 47 -100v-10h-264v10c25 0 47 50 47 96v264c0 50 -22 98 -47 98v10c74 5 154 18 205 41h12v-75c38 47 105 85 181 85c109 0 169 -68 169 -191v-255c0 -227 85 -341 201 -341
c140 0 165 213 319 213c117 0 68 -245 -285 -245c-227 0 -405 145 -405 400z" />
    <glyph glyph-name="uniE040" unicode="&#xe040;" horiz-adv-x="635" 
d="M20 0v10c25 0 47 50 47 96v264c0 50 -22 98 -47 98v10c74 5 154 18 205 41h12v-71c21 54 110 256 274 256c135 0 134 -169 22 -169c-55 0 -97 31 -154 31c-65 0 -126 -142 -142 -183v-273c0 -49 22 -100 47 -100v-10h-264z" />
    <glyph glyph-name="uniE041" unicode="&#xe041;" horiz-adv-x="629" 
d="M253 494v-343c0 -49 19 -76 52 -76c29 0 53 23 57 42h10c0 -73 -63 -127 -149 -127c-92 0 -140 56 -140 161v343h-63v25h15c92 0 180 63 198 148h20v-148c107 0 176 156 301 156c30 0 55 -17 55 -45c0 -78 -145 -136 -309 -136h-47z" />
    <glyph glyph-name="uniE042" unicode="&#xe042;" horiz-adv-x="1189" 
d="M422 135v235c0 50 -22 98 -47 98v10c74 5 154 18 205 41h12v-436c0 -227 85 -341 201 -341c140 0 165 213 319 213c117 0 68 -245 -285 -245c-216 0 -388 132 -404 365c-28 -42 -95 -85 -188 -85c-103 0 -168 62 -168 177v203c0 50 -22 98 -47 98v10c74 5 154 18 205 41
h12v-360c0 -56 30 -105 87 -105c48 0 98 34 98 81z" />
    <glyph glyph-name="uniE043" unicode="&#xe043;" horiz-adv-x="885" 
d="M519 391l-142 -391h-122l-153 413c-24 66 -57 96 -82 96v10h279v-10c-24 0 -36 -30 -11 -96l109 -291l106 293c79 219 155 296 276 296c109 0 124 -170 -16 -170c-138 0 -204 -41 -244 -150z" />
    <glyph glyph-name="uniE044" unicode="&#xe044;" horiz-adv-x="1166" 
d="M784 415c79 219 155 296 276 296c109 0 124 -170 -16 -170c-138 0 -204 -41 -244 -150l-143 -391h-92l-110 297l-108 -297h-92l-153 413c-24 66 -57 96 -82 96v10h279v-10c-24 0 -36 -30 -11 -96l94 -250l60 168l-30 82c-24 66 -57 96 -82 96v10h279v-10
c-24 0 -36 -30 -11 -96l94 -250z" />
    <glyph glyph-name="uniE045" unicode="&#xe045;" horiz-adv-x="832" 
d="M285 0v10c25 0 31 50 4 96l-62 106l-77 -106c-34 -46 -36 -96 -11 -96v-10h-119v10c25 0 72 51 108 100l88 121l-106 182c-27 46 -65 96 -90 96v10h264v-10c-25 0 -30 -51 -2 -100l50 -86l65 90c175 239 235 298 333 298c109 0 117 -170 -23 -170
c-138 0 -201 -13 -288 -132l-76 -105l114 -194c28 -49 67 -100 92 -100v-10h-264z" />
    <glyph glyph-name="uniE046" unicode="&#xe046;" horiz-adv-x="868" 
d="M486 413c79 219 155 298 276 298c109 0 124 -170 -16 -170c-138 0 -204 -41 -244 -150l-179 -482c-37 -101 -93 -148 -173 -148c-151 0 -159 175 -51 175c98 0 60 -105 126 -105c23 0 45 16 64 58l-190 521c-21 58 -54 99 -79 99v10h280v-10c-24 0 -35 -41 -14 -99
l98 -270z" />
    <glyph glyph-name="uniE047" unicode="&#xe047;" horiz-adv-x="825" 
d="M520 -10c67 0 103 65 103 192c0 125 -62 189 -185 189h-10v-241c0 -92 31 -140 92 -140zM428 696v-295h1c92 0 143 52 143 144c0 95 -53 151 -142 151h-2zM248 190v402c0 38 -13 104 -63 104c-28 0 -50 -23 -50 -44c0 -46 75 -67 75 -133c0 -46 -35 -80 -84 -80
c-64 0 -106 53 -106 115c0 93 75 172 188 172h267c176 0 279 -64 279 -170c0 -78 -50 -135 -125 -149c98 -19 176 -110 176 -213c0 -130 -94 -234 -275 -234c-184 0 -282 104 -282 230z" />
    <glyph glyph-name="uniE048" unicode="&#xe048;" horiz-adv-x="678" 
d="M20 0v10c25 0 47 31 47 91v524c0 60 -22 91 -47 91v10h151c233 0 346 97 422 97c106 0 88 -173 -97 -173c-107 0 -221 33 -249 42v-315h96c97 0 142 48 142 106h10v-239h-10c0 58 -45 105 -142 105h-96v-319h140c119 0 146 67 164 157h9l-5 -187h-535z" />
    <glyph glyph-name="uniE049" unicode="&#xe049;" horiz-adv-x="677" 
d="M170 726c233 0 346 97 422 97c106 0 88 -173 -97 -173c-106 0 -217 32 -248 42v-319h116c93 0 118 49 118 104h10v-238h-10c0 56 -25 104 -118 104h-116v-232c0 -64 21 -100 46 -100v-11h-273v11c25 0 47 36 47 100v514c0 60 -22 91 -47 91v10h150z" />
    <glyph glyph-name="uniE050" unicode="&#xe050;" horiz-adv-x="1057" 
d="M621 518l-189 -518h-109l-225 619c-23 62 -57 97 -78 97v10h306v-10c-41 0 -58 -34 -34 -101l164 -455l135 373c96 267 213 389 343 389c73 0 103 -44 103 -88c0 -143 -293 22 -416 -316z" />
    <glyph glyph-name="uniE051" unicode="&#xe051;" horiz-adv-x="1384" 
d="M918 533c89 269 213 389 343 389c73 0 103 -44 103 -88c0 -143 -307 27 -416 -316l-164 -518h-109l-136 432l-137 -432h-109l-195 619c-20 62 -57 97 -78 97v10h306v-10c-41 0 -56 -35 -34 -101l135 -413l94 287l-41 130c-20 62 -57 97 -78 97v10h306v-10
c-41 0 -56 -35 -34 -101l135 -414z" />
    <glyph glyph-name="uniE052" unicode="&#xe052;" horiz-adv-x="942" 
d="M418 111c0 -64 22 -100 46 -100v-11h-273v11c25 0 47 36 47 100v217l-133 293c-24 54 -60 95 -85 95v10h276v-10c-25 0 -33 -41 -8 -95l114 -251l74 163c118 258 213 389 343 389c73 0 103 -44 103 -88c0 -143 -272 12 -420 -316l-84 -186v-221z" />
    <glyph glyph-name="uniE054" unicode="&#xe054;" horiz-adv-x="687" 
d="M484 427l-92 -81c195 -9 119 -274 228 -274c23 0 36 15 36 42h11c0 -78 -53 -124 -122 -124c-229 0 -131 274 -230 274c-10 0 -22 -6 -33 -14l-15 -13c-1 -1 -1 -2 -2 -3v1l-28 -25v-100c0 -49 22 -100 47 -100v-10h-264v10c25 0 47 50 47 96v512c0 50 -22 98 -47 98v10
c74 5 154 18 205 41h12v-517l192 166c55 47 31 93 7 93v10h194v-10c-33 0 -98 -40 -146 -82z" />
    <glyph glyph-name="uniE056" unicode="&#xe056;" horiz-adv-x="964" 
d="M397 106v259c0 60 -25 90 -76 90c-31 0 -64 -22 -84 -55v-290c0 -49 22 -100 47 -100v-10h-264v10c25 0 47 50 47 96v264c0 50 -22 98 -47 98v10c74 5 154 18 205 41h12v-74c36 47 99 84 171 84c70 0 118 -31 142 -90c35 50 101 90 175 90c103 0 159 -68 159 -191v-255
c0 -22 7 -36 23 -36c10 0 19 4 27 21h10c0 -45 -46 -78 -107 -78c-64 0 -123 41 -123 125v250c0 60 -25 90 -76 90c-28 0 -58 -18 -78 -46c4 -21 7 -45 7 -71v-228c0 -49 22 -100 47 -100v-10h-264v10c25 0 47 50 47 96z" />
    <glyph glyph-name="uniE057" unicode="&#xe057;" horiz-adv-x="667" 
d="M417 115v250c0 60 -29 90 -86 90c-35 0 -72 -22 -94 -56v-289c0 -49 22 -100 47 -100v-10h-264v10c25 0 47 50 47 96v264c0 50 -22 98 -47 98v10c74 5 154 18 205 41h12v-75c38 47 105 85 181 85c109 0 169 -68 169 -191v-255c0 -22 7 -36 23 -36c10 0 19 4 27 21h10
c0 -45 -46 -78 -107 -78c-64 0 -123 41 -123 125z" />
    <glyph glyph-name="uniE058" unicode="&#xe058;" horiz-adv-x="672" 
d="M545 -10c-61 0 -105 32 -121 86c-28 -42 -95 -86 -189 -86c-103 0 -168 62 -168 177v203c0 50 -22 98 -47 98v10c74 5 154 18 205 41h12v-360c0 -56 30 -105 87 -105c48 0 98 34 98 81v235c0 50 -22 98 -47 98v10c74 5 154 18 205 41h12v-436c0 -22 7 -36 23 -36
c10 0 19 4 27 21h10c0 -45 -46 -78 -107 -78z" />
    <glyph glyph-name="uniF03F" unicode="&#xf03f;" horiz-adv-x="1096" 
d="M20 726h1051l5 -187h-10c-18 90 -44 157 -164 157h-79v-595c0 -60 22 -91 47 -91v-10h-273v10c24 0 46 31 46 91v595h-396v-319h96c97 0 142 48 142 106h10v-239h-10c0 58 -45 105 -142 105h-96v-319h140c119 0 146 67 164 157h9l-5 -187h-535v10c25 0 47 31 47 91v524
c0 60 -22 91 -47 91v10z" />
    <glyph glyph-name="uniF040" unicode="&#xf040;" horiz-adv-x="1103" 
d="M247 111c0 -64 21 -100 46 -100v-11h-273v11c25 0 47 36 47 100v514c0 60 -22 91 -47 91v10h1058l5 -187h-10c-18 90 -44 157 -164 157h-79v-595c0 -60 22 -91 47 -91v-10h-273v10c24 0 46 31 46 91v595h-403v-323h116c93 0 118 49 118 104h10v-238h-10
c0 56 -25 104 -118 104h-116v-232z" />
    <glyph glyph-name="uniF041" unicode="&#xf041;" horiz-adv-x="1191" 
d="M202 363c0 -239 67 -342 149 -342c80 0 148 103 148 342s-68 342 -148 342c-82 0 -149 -103 -149 -342zM692 363c0 -239 67 -342 149 -342c80 0 148 103 148 342s-68 342 -148 342c-82 0 -149 -103 -149 -342zM596 99c-61 -71 -148 -109 -245 -109
c-184 0 -331 134 -331 373s147 374 331 374c97 0 184 -38 245 -110c60 72 147 110 245 110c183 0 330 -135 330 -374s-147 -373 -330 -373c-98 0 -185 38 -245 109z" />
    <glyph glyph-name="uniF042" unicode="&#xf042;" horiz-adv-x="1147" 
d="M202 363c0 -239 67 -342 149 -342c80 0 148 103 148 342s-68 342 -148 342c-82 0 -149 -103 -149 -342zM863 737c161 0 265 -81 263 -174c-1 -54 -36 -100 -91 -100c-63 0 -90 38 -89 92c1 58 14 152 -87 152c-91 0 -174 -90 -174 -295c0 -183 86 -298 222 -298
c114 0 193 71 205 184h10c12 -182 -106 -308 -289 -308c-101 0 -184 38 -242 104c-60 -68 -145 -104 -240 -104c-184 0 -331 134 -331 373s147 374 331 374c97 0 184 -38 244 -110c66 72 160 110 268 110z" />
    <glyph glyph-name="uniF043" unicode="&#xf043;" horiz-adv-x="1189" 
d="M202 363c0 -239 67 -342 149 -342c80 0 148 103 148 342s-68 342 -148 342c-82 0 -149 -103 -149 -342zM881 34c52 0 75 34 75 110v155c0 61 -26 93 -78 96v10h291v-10c-29 0 -47 -38 -47 -99v-296h-10s-40 26 -82 26c-64 0 -91 -36 -194 -36c-102 0 -186 38 -243 106
c-61 -69 -146 -106 -242 -106c-184 0 -331 134 -331 373s147 374 331 374c97 0 183 -38 243 -108c65 72 162 108 272 108c161 0 265 -81 263 -174c-1 -54 -36 -100 -91 -100c-63 0 -90 38 -89 92c1 58 14 152 -87 152c-91 0 -174 -100 -174 -331c0 -204 57 -342 193 -342z
" />
    <glyph glyph-name="uniF049" unicode="&#xf049;" horiz-adv-x="982" 
d="M561 354l-129 -354h-109l-225 619c-23 62 -57 97 -78 97v10h306v-10c-41 0 -58 -34 -34 -101l164 -455l75 209c95 267 153 389 283 389c73 0 103 -44 103 -88c0 -143 -247 -17 -356 -316zM915 519v-409c0 -49 22 -100 47 -100v-10h-264v10c25 0 47 50 47 96v264
c0 50 -22 98 -47 98v10c74 5 154 18 205 41h12z" />
    <glyph glyph-name="uniF04A" unicode="&#xf04a;" horiz-adv-x="1310" 
d="M863 369c88 269 153 389 283 389c73 0 103 -44 103 -88c0 -143 -259 -12 -354 -316l-111 -354h-109l-136 432l-137 -432h-109l-195 619c-20 62 -57 97 -78 97v10h306v-10c-41 0 -56 -35 -34 -101l135 -413l94 287l-41 130c-20 62 -57 97 -78 97v10h306v-10
c-41 0 -56 -35 -34 -101l135 -413zM1243 519v-409c0 -49 22 -100 47 -100v-10h-264v10c25 0 47 50 47 96v264c0 50 -22 98 -47 98v10c74 5 154 18 205 41h12z" />
    <glyph glyph-name="uniF04C" unicode="&#xf04c;" horiz-adv-x="856" 
d="M418 111c0 -64 22 -100 46 -100v-11h-273v11c25 0 47 36 47 100v217l-133 293c-24 54 -60 95 -85 95v10h276v-10c-25 0 -33 -41 -8 -95l114 -251l8 18c117 258 157 370 287 370c73 0 103 -44 103 -88c0 -143 -233 -4 -363 -295l-19 -43v-221zM572 0v10c25 0 47 50 47 96
v264c0 50 -22 98 -47 98v10c74 5 154 18 205 41h12v-409c0 -49 22 -100 47 -100v-10h-264z" />
    <glyph glyph-name="uniF04E" unicode="&#xf04e;" horiz-adv-x="882" 
d="M450 476h-1c30 -23 47 -53 47 -86c0 -44 -33 -73 -67 -73c-138 0 -55 187 -153 187c-53 0 -81 -67 -81 -191c0 -141 60 -220 147 -220c76 0 133 41 151 109h10c-7 -132 -90 -212 -222 -212c-154 0 -261 112 -261 272c0 158 106 267 258 267c18 0 35 -1 52 -4
c-49 20 -84 68 -84 117c0 96 117 173 264 173c141 0 233 -64 233 -179v-117h114v-25h-114v-343c0 -49 19 -76 52 -76c29 0 53 23 57 42h10c0 -73 -63 -127 -149 -127c-92 0 -140 56 -140 161v343h-63v25h15c92 0 194 45 193 126c-1 94 -79 145 -188 145
c-106 0 -163 -63 -163 -144c0 -68 45 -126 83 -170z" />
    <glyph glyph-name="uniF04F" unicode="&#xf04f;" horiz-adv-x="882" 
d="M192 315h160c-4 117 -33 189 -75 189c-50 0 -81 -87 -85 -189zM452 461h-1c41 -38 66 -91 66 -149v-21h-324c7 -127 68 -198 158 -198c36 0 136 6 158 109h10c-12 -137 -108 -212 -235 -212c-155 0 -264 112 -264 272c0 159 104 267 253 267c17 0 33 -1 49 -4
c-44 22 -76 70 -76 117c0 96 117 173 264 173c141 0 233 -64 233 -179v-117h114v-25h-114v-343c0 -49 19 -76 52 -76c29 0 53 23 57 42h10c0 -73 -63 -127 -149 -127c-92 0 -140 56 -140 161v343h-63v25h15c92 0 194 45 193 126c-1 94 -79 145 -188 145
c-106 0 -163 -63 -163 -144c0 -68 47 -141 85 -185z" />
    <glyph glyph-name="uniF055" unicode="&#xf055;" horiz-adv-x="804" 
d="M197 320c0 -139 31 -184 71 -184c41 0 71 45 71 184c0 138 -30 184 -71 184c-40 0 -71 -46 -71 -184zM171 -46c-16 -20 -25 -52 -25 -80c0 -52 47 -91 117 -91c75 0 124 39 124 84c0 61 -117 67 -216 87zM336 518c70 118 182 192 296 192c159 0 139 -154 17 -154
c-74 0 -115 19 -164 19c-55 0 -95 -30 -130 -65c93 -33 159 -102 159 -187c0 -121 -112 -211 -253 -211c-49 0 -99 17 -131 38c-23 -13 -33 -24 -33 -38c0 -64 424 52 424 -177c0 -99 -97 -174 -260 -174c-138 0 -241 45 -241 127c0 45 24 76 68 91c-34 16 -56 39 -56 75
c0 49 37 84 78 108c-54 37 -88 94 -88 159c0 118 103 208 234 208c28 0 55 -4 80 -11zM784 0h-264v10c25 0 47 50 47 96v264c0 50 -22 98 -47 98v10c74 5 154 18 205 41h12v-409c0 -49 22 -100 47 -100v-10z" />
    <glyph glyph-name="uniF056" unicode="&#xf056;" horiz-adv-x="961" 
d="M49 611c0 156 297 99 451 144c11 4 22 8 32 12h12v-323c38 47 105 85 181 85c109 0 169 -68 169 -191v-228c0 -49 22 -100 47 -100v-10h-264v10c25 0 47 50 47 96v259c0 60 -29 90 -86 90c-35 0 -72 -22 -94 -56v-289c0 -49 22 -100 47 -100v-10h-264v10
c25 0 47 50 47 96v487c0 72 -17 110 -53 110c-57 0 -69 -178 -181 -178c-53 0 -91 36 -91 86zM20 0v10c25 0 47 50 47 96v264c0 50 -22 98 -47 98v10c74 5 154 18 205 41h12v-409c0 -49 22 -100 47 -100v-10h-264z" />
    <glyph glyph-name="uniF057" unicode="&#xf057;" horiz-adv-x="1024" 
d="M49 611c0 156 297 99 451 144c11 4 22 8 32 12h12v-517l192 166c55 47 31 93 7 93v10h194v-10c-33 0 -98 -39 -146 -82l-66 -59l198 -287c20 -29 43 -70 81 -71v-10h-306v10c25 0 40 43 -4 101l-105 139l-45 -40v-100c0 -49 22 -100 47 -100v-10h-264v10
c25 0 47 50 47 96v487c0 72 -17 110 -53 110c-57 0 -69 -178 -181 -178c-53 0 -91 36 -91 86zM20 0v10c25 0 47 50 47 96v264c0 50 -22 98 -47 98v10c74 5 154 18 205 41h12v-409c0 -49 22 -100 47 -100v-10h-264z" />
    <glyph glyph-name="uniF05B" unicode="&#xf05b;" horiz-adv-x="654" 
d="M20 0v10c25 0 47 50 47 96v264c0 50 -22 98 -47 98v10c74 5 154 18 205 41h12v-70c20 55 99 245 244 245c135 0 134 -169 22 -169c-55 0 -82 41 -117 41c-70 0 -132 -140 -149 -183v-273c0 -49 22 -100 47 -100v-10h-264zM370 0v10c25 0 47 50 47 96v264
c0 50 -22 98 -47 98v10c74 5 154 18 205 41h12v-409c0 -49 22 -100 47 -100v-10h-264z" />
    <glyph glyph-name="uniF05C" unicode="&#xf05c;" horiz-adv-x="712" 
d="M253 591v-72h102c92 0 194 45 193 126c-1 94 -79 145 -161 145c-86 0 -134 -70 -134 -199zM20 519h15c148 0 133 296 351 296c112 0 187 -64 187 -179v-117h114v-25h-114v-343c0 -49 19 -76 52 -76c29 0 53 23 57 42h10c0 -73 -63 -127 -149 -127c-92 0 -140 56 -140 161
v343h-150v-343c0 -49 19 -76 52 -76c29 0 53 23 57 42h10c0 -73 -63 -127 -149 -127c-92 0 -140 56 -140 161v343h-63v25z" />
    <glyph glyph-name="uniF05D" unicode="&#xf05d;" horiz-adv-x="934" 
d="M519 391l-142 -391h-122l-153 413c-24 66 -57 96 -82 96v10h279v-10c-24 0 -36 -30 -11 -96l109 -291l106 293c79 219 155 296 276 296c109 0 124 -170 -16 -170c-138 0 -204 -41 -244 -150zM650 6v10c25 0 47 50 47 96v264c0 50 -22 98 -47 98v10c74 5 154 18 205 41h12
v-409c0 -49 22 -100 47 -100v-10h-264z" />
    <glyph glyph-name="uniF05E" unicode="&#xf05e;" horiz-adv-x="1200" 
d="M784 415c79 219 155 296 276 296c109 0 124 -170 -16 -170c-138 0 -204 -41 -244 -150l-143 -391h-92l-110 297l-108 -297h-92l-153 413c-24 66 -57 96 -82 96v10h279v-10c-24 0 -36 -30 -11 -96l94 -250l60 168l-30 82c-24 66 -57 96 -82 96v10h279v-10
c-24 0 -36 -30 -11 -96l94 -250zM916 0v10c25 0 47 50 47 96v264c0 50 -22 98 -47 98v10c74 5 154 18 205 41h12v-409c0 -49 22 -100 47 -100v-10h-264z" />
    <glyph glyph-name="uniF060" unicode="&#xf060;" horiz-adv-x="681" 
d="M253 494v-343c0 -49 19 -76 52 -76c29 0 53 23 57 42h10c0 -73 -63 -127 -149 -127c-92 0 -140 56 -140 161v343h-63v25h15c92 0 180 63 198 148h20v-148c107 0 176 156 301 156c30 0 55 -17 55 -45c0 -78 -145 -136 -309 -136h-47zM397 0v10c25 0 47 50 47 96v264
c0 50 -22 98 -47 98v10c74 5 154 18 205 41h12v-409c0 -49 22 -100 47 -100v-10h-264z" />
    <glyph glyph-name="s_t" unicode="&#xfb06;" horiz-adv-x="858" 
d="M244 504c-24 0 -46 -19 -46 -54c0 -133 270 -149 270 -303c0 -92 -94 -157 -222 -157c-127 0 -226 40 -226 126c0 45 33 84 80 84c117 0 55 -185 146 -185c32 0 51 15 51 45c0 127 -272 156 -272 318c0 82 93 151 216 151c24 0 46 -2 66 -5c-49 20 -85 68 -85 118
c0 96 117 173 264 173c141 0 233 -64 233 -179v-117h114v-25h-114v-343c0 -49 19 -76 52 -76c29 0 53 23 57 42h10c0 -73 -63 -127 -149 -127c-92 0 -140 56 -140 161v343h-63v25h15c92 0 194 45 193 126c-1 94 -79 145 -188 145c-106 0 -163 -63 -163 -144
c0 -68 45 -126 83 -170c24 -21 36 -48 36 -78c0 -43 -30 -70 -77 -70c-112 0 -74 176 -141 176z" />
    </font>
</defs>
</svg>
